<svg xmlns="http://www.w3.org/2000/svg" viewBox="0 0 64 64"><title>perfume-channel-ico</title><g id="perfume-channel-ico"><circle cx="34" cy="34" r="23" style="fill:#e5efef"/><line x1="9" y1="8" x2="9" y2="10" style="fill:none;stroke:#4c241d;stroke-linecap:round;stroke-linejoin:round;stroke-width:2px"/><line x1="9" y1="14" x2="9" y2="16" style="fill:none;stroke:#4c241d;stroke-linecap:round;stroke-linejoin:round;stroke-width:2px"/><line x1="5" y1="12" x2="7" y2="12" style="fill:none;stroke:#4c241d;stroke-linecap:round;stroke-linejoin:round;stroke-width:2px"/><line x1="11" y1="12" x2="13" y2="12" style="fill:none;stroke:#4c241d;stroke-linecap:round;stroke-linejoin:round;stroke-width:2px"/><circle cx="57.5" cy="24.5" r="2.5" style="fill:none;stroke:#4c241d;stroke-linecap:round;stroke-linejoin:round;stroke-width:2px"/><path d="M8.082,28.667A1.069,1.069,0,1,1,7.013,27.6,1.07,1.07,0,0,1,8.082,28.667Z" style="fill:#4c241d"/><path d="M56.151,12.6a1.069,1.069,0,1,1-1.069-1.069A1.069,1.069,0,0,1,56.151,12.6Z" style="fill:#4c241d"/><path d="M20.466,25H46.534A2.466,2.466,0,0,1,49,27.466V56.786A3.214,3.214,0,0,1,45.786,60H21.214A3.214,3.214,0,0,1,18,56.786V27.466A2.466,2.466,0,0,1,20.466,25Z" style="fill:#ffce56;stroke:#4c241d;stroke-linecap:round;stroke-linejoin:round;stroke-width:2px"/><rect x="25" y="32" width="17" height="15" style="fill:#fff;stroke:#4c241d;stroke-linecap:round;stroke-linejoin:round;stroke-width:2px"/><rect x="27" y="20" width="12" height="5" style="fill:#ffce56;stroke:#4c241d;stroke-linecap:round;stroke-linejoin:round;stroke-width:2px"/><polygon points="41.461 17 24.538 17 22 14.188 22 10.587 24.538 8 41.461 8 44 10.587 44 14.3 41.461 17" style="fill:#fff;stroke:#4c241d;stroke-linecap:round;stroke-linejoin:round;stroke-width:2px"/><path d="M39,21H27a2,2,0,0,1-2-2h0a2,2,0,0,1,2-2H39a2,2,0,0,1,2,2h0A2,2,0,0,1,39,21Z" style="fill:#fc8c29;stroke:#4c241d;stroke-linecap:round;stroke-linejoin:round;stroke-width:2px"/><line x1="32" y1="37" x2="35" y2="37" style="fill:none;stroke:#4c241d;stroke-linecap:round;stroke-linejoin:round;stroke-width:2px"/><line x1="31.481" y1="41" x2="35.519" y2="41" style="fill:none;stroke:#4c241d;stroke-linecap:round;stroke-linejoin:round;stroke-width:2px"/></g></svg>