<svg xmlns="http://www.w3.org/2000/svg" viewBox="0 0 64 64"><title>cheese-meat-assortment-platter-ico</title><g id="cheese-meat-assortment-platter-ico"><circle cx="33" cy="32" r="23" style="fill:#e5efef"/><ellipse cx="32" cy="54" rx="29" ry="6" style="fill:#fff;stroke:#4c241d;stroke-linecap:round;stroke-linejoin:round;stroke-width:2px"/><line x1="28" y1="10" x2="28" y2="12" style="fill:none;stroke:#4c241d;stroke-linecap:round;stroke-linejoin:round;stroke-width:2px"/><line x1="28" y1="16" x2="28" y2="18" style="fill:none;stroke:#4c241d;stroke-linecap:round;stroke-linejoin:round;stroke-width:2px"/><line x1="24" y1="14" x2="26" y2="14" style="fill:none;stroke:#4c241d;stroke-linecap:round;stroke-linejoin:round;stroke-width:2px"/><line x1="30" y1="14" x2="32" y2="14" style="fill:none;stroke:#4c241d;stroke-linecap:round;stroke-linejoin:round;stroke-width:2px"/><circle cx="56.5" cy="18.5" r="2.5" style="fill:none;stroke:#4c241d;stroke-linecap:round;stroke-linejoin:round;stroke-width:2px"/><path d="M14.651,5.1a1.069,1.069,0,1,1-1.069-1.069A1.069,1.069,0,0,1,14.651,5.1Z" style="fill:#4c241d"/><path d="M50.651,6.1a1.069,1.069,0,1,1-1.069-1.069A1.069,1.069,0,0,1,50.651,6.1Z" style="fill:#4c241d"/><polygon points="38 40 30 35 18.012 50 35.771 53.812 38 40" style="fill:#ffce56;stroke:#4c241d;stroke-linecap:round;stroke-linejoin:round;stroke-width:2px"/><circle cx="30.5" cy="41.5" r="1.5" style="fill:#4c241d"/><circle cx="30.5" cy="46.5" r="0.817" style="fill:#4c241d"/><circle cx="27.5" cy="44.5" r="0.607" style="fill:#4c241d"/><rect x="34" y="43" width="21" height="11" style="fill:#d9be6f;stroke:#4c241d;stroke-linecap:round;stroke-linejoin:round;stroke-width:2px"/><path d="M40,37l-6,6h9v5.5a1.5,1.5,0,0,0,3,0v-3a1.5,1.5,0,0,0,3,0V43h6Z" style="fill:#ffce56;stroke:#4c241d;stroke-linecap:round;stroke-linejoin:round;stroke-width:2px"/><path d="M47.611,23.486S46,25.1,46.806,26.708a3.659,3.659,0,0,1,0,4.027" style="fill:none;stroke:#4c241d;stroke-linecap:round;stroke-linejoin:round;stroke-width:2px"/><line x1="12.302" y1="38.035" x2="12.302" y2="52.035" style="fill:none;stroke:#4c241d;stroke-linecap:round;stroke-linejoin:round;stroke-width:2px"/><path d="M3.806,26.213a8.954,8.954,0,0,0,7.652,11.923c.211.014.423.021.638.021a9.573,9.573,0,0,0,3.63-.708,8.906,8.906,0,0,0,5.028-10.644l-2.007-7.48H6.109Z" style="fill:#fff;stroke:#4c241d;stroke-linecap:round;stroke-linejoin:round;stroke-width:2px"/><path d="M3.373,30.236a8.819,8.819,0,0,0,8.085,7.9c.211.014.423.021.638.021a9.573,9.573,0,0,0,3.63-.708,8.906,8.906,0,0,0,5.028-10.644l-.147-.531a28.8,28.8,0,0,0-7.181,3.236C8.951,32.12,5.523,31.385,3.373,30.236Z" style="fill:#efefd2;stroke:#4c241d;stroke-linecap:round;stroke-linejoin:round;stroke-width:2px"/><path d="M37.14,23.486s-1.611,1.611-.8,3.222a3.659,3.659,0,0,1,0,4.027" style="fill:none;stroke:#4c241d;stroke-linecap:round;stroke-linejoin:round;stroke-width:2px"/><path d="M41.973,20.265s-1.611,1.61-.806,3.221a3.657,3.657,0,0,1,0,4.028" style="fill:none;stroke:#4c241d;stroke-linecap:round;stroke-linejoin:round;stroke-width:2px"/><path d="M23.808,51.58c-.408,1.949-3.7,2.91-7.354,2.146s-6.285-2.962-5.878-4.911,3.7-2.909,7.353-2.146S24.215,49.632,23.808,51.58Z" style="fill:#e66353;stroke:#4c241d;stroke-linecap:round;stroke-linejoin:round;stroke-width:2px"/><ellipse cx="23.5" cy="52.901" rx="3.605" ry="6.759" transform="translate(-33.09 65.083) rotate(-78.196)" style="fill:#f53e28;stroke:#4c241d;stroke-linecap:round;stroke-linejoin:round;stroke-width:2px"/><path d="M36.424,55.185c-.407,1.948-3.7,2.909-7.353,2.146s-6.286-2.962-5.879-4.911,3.7-2.91,7.354-2.146S36.831,53.236,36.424,55.185Z" style="fill:#f96e43;stroke:#4c241d;stroke-linecap:round;stroke-linejoin:round;stroke-width:2px"/></g></svg>