<svg xmlns="http://www.w3.org/2000/svg" viewBox="0 0 64 64"><title>basket-of-bread-assortment-ico</title><g id="basket-of-bread-assortment-ico"><circle cx="28" cy="32" r="23" style="fill:#e5efef"/><path d="M28.747,33.936c2.418,11.069,2.307,20.495-.247,21.053s-6.586-7.963-9-19.032-2.307-20.495.247-21.053S26.328,22.867,28.747,33.936Z" style="fill:#bf7e68;stroke:#4c241d;stroke-linecap:round;stroke-linejoin:round;stroke-width:2px"/><path d="M44.229,34.949C40.885,44.4,35.177,51,31.48,49.687S27.5,39.658,30.841,30.21,39.893,14.163,43.59,15.471,47.573,25.5,44.229,34.949Z" style="fill:#bf7e68;stroke:#4c241d;stroke-linecap:round;stroke-linejoin:round;stroke-width:2px"/><line x1="9" y1="3" x2="9" y2="5" style="fill:none;stroke:#4c241d;stroke-linecap:round;stroke-linejoin:round;stroke-width:2px"/><line x1="9" y1="9" x2="9" y2="11" style="fill:none;stroke:#4c241d;stroke-linecap:round;stroke-linejoin:round;stroke-width:2px"/><line x1="5" y1="7" x2="7" y2="7" style="fill:none;stroke:#4c241d;stroke-linecap:round;stroke-linejoin:round;stroke-width:2px"/><line x1="11" y1="7" x2="13" y2="7" style="fill:none;stroke:#4c241d;stroke-linecap:round;stroke-linejoin:round;stroke-width:2px"/><circle cx="53.5" cy="12.5" r="2.5" style="fill:none;stroke:#4c241d;stroke-linecap:round;stroke-linejoin:round;stroke-width:2px"/><path d="M4.651,37.1a1.069,1.069,0,1,1-1.069-1.069A1.069,1.069,0,0,1,4.651,37.1Z" style="fill:#4c241d"/><path d="M44.651,6.1a1.069,1.069,0,1,1-1.069-1.069A1.069,1.069,0,0,1,44.651,6.1Z" style="fill:#4c241d"/><path d="M42,23c-1.6-.534-4.907-.5-7.647-.347A39.057,39.057,0,0,0,32.5,26.167Z" style="fill:#ffce56;stroke:#4c241d;stroke-linecap:round;stroke-linejoin:round;stroke-width:2px"/><path d="M30.811,30.3c-.416,1.183-.775,2.354-1.078,3.5l9.091-3.03C37.124,30.2,33.826,30.174,30.811,30.3Z" style="fill:#ffce56;stroke:#4c241d;stroke-linecap:round;stroke-linejoin:round;stroke-width:2px"/><path d="M28.523,41.542l8.4-2.8c-1.72-.573-5.045-.607-8.1-.483A30.007,30.007,0,0,0,28.523,41.542Z" style="fill:#ffce56;stroke:#4c241d;stroke-linecap:round;stroke-linejoin:round;stroke-width:2px"/><path d="M20.431,35.917c5.23,10.05,7.59,19.176,5.271,20.383s-8.44-5.962-13.67-16.012S4.441,21.112,6.76,19.905,15.2,25.866,20.431,35.917Z" style="fill:#bf7e68;stroke:#4c241d;stroke-linecap:round;stroke-linejoin:round;stroke-width:2px"/><ellipse cx="47.793" cy="38.102" rx="20.515" ry="4.734" transform="translate(-11.69 52.166) rotate(-51.866)" style="fill:#bf7e68;stroke:#4c241d;stroke-linecap:round;stroke-linejoin:round;stroke-width:2px"/><path d="M9.919,41.259h41.03v5.757A14.757,14.757,0,0,1,36.192,61.774H24.676A14.757,14.757,0,0,1,9.919,47.016Z" style="fill:#914d41;stroke:#4c241d;stroke-linecap:round;stroke-linejoin:round;stroke-width:2px"/><line x1="11" y1="27" x2="15.054" y2="27" style="fill:#bf7e68;stroke:#4c241d;stroke-linecap:round;stroke-linejoin:round;stroke-width:2px"/><line x1="21" y1="22" x2="25.054" y2="22" style="fill:#bf7e68;stroke:#4c241d;stroke-linecap:round;stroke-linejoin:round;stroke-width:2px"/><line x1="22" y1="27" x2="26.054" y2="27" style="fill:#bf7e68;stroke:#4c241d;stroke-linecap:round;stroke-linejoin:round;stroke-width:2px"/><line x1="24" y1="32" x2="28.054" y2="32" style="fill:#bf7e68;stroke:#4c241d;stroke-linecap:round;stroke-linejoin:round;stroke-width:2px"/><line x1="13" y1="31" x2="17.054" y2="31" style="fill:#bf7e68;stroke:#4c241d;stroke-linecap:round;stroke-linejoin:round;stroke-width:2px"/><line x1="15" y1="35" x2="19.054" y2="35" style="fill:#bf7e68;stroke:#4c241d;stroke-linecap:round;stroke-linejoin:round;stroke-width:2px"/><line x1="51.424" y1="27" x2="55" y2="27" style="fill:#bf7e68;stroke:#4c241d;stroke-linecap:round;stroke-linejoin:round;stroke-width:2px"/><line x1="47.424" y1="32" x2="51" y2="32" style="fill:#bf7e68;stroke:#4c241d;stroke-linecap:round;stroke-linejoin:round;stroke-width:2px"/><line x1="43.424" y1="37" x2="47" y2="37" style="fill:#bf7e68;stroke:#4c241d;stroke-linecap:round;stroke-linejoin:round;stroke-width:2px"/><line x1="14.49" y1="57.688" x2="28.523" y2="41.542" style="fill:#bf7e68;stroke:#4c241d;stroke-linecap:round;stroke-linejoin:round;stroke-width:2px"/><line x1="20.49" y1="60.688" x2="30" y2="50" style="fill:#bf7e68;stroke:#4c241d;stroke-linecap:round;stroke-linejoin:round;stroke-width:2px"/><line x1="29.49" y1="61.688" x2="44" y2="45" style="fill:#bf7e68;stroke:#4c241d;stroke-linecap:round;stroke-linejoin:round;stroke-width:2px"/><line x1="11.49" y1="51.688" x2="16.718" y2="45.673" style="fill:#bf7e68;stroke:#4c241d;stroke-linecap:round;stroke-linejoin:round;stroke-width:2px"/><line x1="9.919" y1="44.157" x2="27.092" y2="61.774" style="fill:#bf7e68;stroke:#4c241d;stroke-linecap:round;stroke-linejoin:round;stroke-width:2px"/><line x1="19.919" y1="45.157" x2="36.153" y2="61.811" style="fill:#bf7e68;stroke:#4c241d;stroke-linecap:round;stroke-linejoin:round;stroke-width:2px"/><line x1="28.919" y1="41.157" x2="45.153" y2="57.811" style="fill:#bf7e68;stroke:#4c241d;stroke-linecap:round;stroke-linejoin:round;stroke-width:2px"/></g></svg>