<svg xmlns="http://www.w3.org/2000/svg" viewBox="0 0 64 64"><title>people-love-together-ico</title><g id="people-love-together-ico"><circle cx="26" cy="32" r="23" style="fill:#e5efef"/><line x1="6" y1="3" x2="6" y2="5" style="fill:none;stroke:#4c241d;stroke-linecap:round;stroke-linejoin:round;stroke-width:2px"/><line x1="6" y1="9" x2="6" y2="11" style="fill:none;stroke:#4c241d;stroke-linecap:round;stroke-linejoin:round;stroke-width:2px"/><line x1="2" y1="7" x2="4" y2="7" style="fill:none;stroke:#4c241d;stroke-linecap:round;stroke-linejoin:round;stroke-width:2px"/><line x1="8" y1="7" x2="10" y2="7" style="fill:none;stroke:#4c241d;stroke-linecap:round;stroke-linejoin:round;stroke-width:2px"/><path d="M7.082,20.667A1.069,1.069,0,1,1,6.013,19.6,1.07,1.07,0,0,1,7.082,20.667Z" style="fill:#4c241d"/><circle cx="49" cy="17" r="7" style="fill:#fff;stroke:#4c241d;stroke-linecap:round;stroke-linejoin:round;stroke-width:2px"/><circle cx="22" cy="17" r="7" style="fill:#fff;stroke:#4c241d;stroke-linecap:round;stroke-linejoin:round;stroke-width:2px"/><path d="M48.284,24A11.751,11.751,0,0,0,37,35.881V40a2,2,0,0,1-2,2h0a2,2,0,0,1-2-2V35.881A11.751,11.751,0,0,0,21.715,24,11.5,11.5,0,0,0,10,35.5V42A18,18,0,0,0,28,60H42A18,18,0,0,0,60,42V35.5A11.5,11.5,0,0,0,48.284,24Z" style="fill:#fff;stroke:#4c241d;stroke-linecap:round;stroke-linejoin:round;stroke-width:2px"/><path d="M40.234,30.651a6.8,6.8,0,0,0-4.776,2.009,6.8,6.8,0,0,0-4.777-2.009c-3.956,0-7.164,3.512-7.164,7.845s8.359,11.767,11.941,14.382C39.04,50.263,47.4,42.828,47.4,38.5S44.191,30.651,40.234,30.651Z" style="fill:#f53e28;stroke:#4c241d;stroke-linecap:round;stroke-linejoin:round;stroke-width:2px"/></g></svg>