<svg xmlns="http://www.w3.org/2000/svg" viewBox="0 0 64 64"><title>poodle-dog-love-ico</title><g id="poodle-dog-love-ico"><circle cx="36" cy="35" r="23" style="fill:#e5efef"/><line x1="6" y1="7" x2="6" y2="9" style="fill:none;stroke:#4c241d;stroke-linecap:round;stroke-linejoin:round;stroke-width:2px"/><line x1="6" y1="13" x2="6" y2="15" style="fill:none;stroke:#4c241d;stroke-linecap:round;stroke-linejoin:round;stroke-width:2px"/><line x1="2" y1="11" x2="4" y2="11" style="fill:none;stroke:#4c241d;stroke-linecap:round;stroke-linejoin:round;stroke-width:2px"/><line x1="8" y1="11" x2="10" y2="11" style="fill:none;stroke:#4c241d;stroke-linecap:round;stroke-linejoin:round;stroke-width:2px"/><circle cx="58.5" cy="8.5" r="2.5" style="fill:none;stroke:#4c241d;stroke-linecap:round;stroke-linejoin:round;stroke-width:2px"/><path d="M21.151,5.6a1.069,1.069,0,1,1-1.069-1.069A1.069,1.069,0,0,1,21.151,5.6Z" style="fill:#4c241d"/><path d="M59.151,31.6a1.069,1.069,0,1,1-1.069-1.069A1.069,1.069,0,0,1,59.151,31.6Z" style="fill:#4c241d"/><path d="M32.5,27.5l-11.022,2A6.672,6.672,0,0,0,16,36.068V42.5L10,51v6h7a3.541,3.541,0,0,0-2.959-3.493L14,53.5v-3l1.894-2.273a3.741,3.741,0,0,1,1.484-1.078h0a11.681,11.681,0,0,0,6.106-5.619l.255-.509a5.766,5.766,0,0,1,5.68-3.165l7.08.644Z" style="fill:#e7d1c4;stroke:#4c241d;stroke-linecap:round;stroke-linejoin:round;stroke-width:2px"/><path d="M45,53.477V39H42V57h7a3.419,3.419,0,0,0-2.975-3.389Z" style="fill:#e7d1c4;stroke:#4c241d;stroke-linecap:round;stroke-linejoin:round;stroke-width:2px"/><path d="M46.5,14.5a10.391,10.391,0,0,0,7,5l-1.06,1.59a3.166,3.166,0,0,1-2.635,1.41H43.5l-1-6Z" style="fill:#e7d1c4;stroke:#4c241d;stroke-linecap:round;stroke-linejoin:round;stroke-width:2px"/><path d="M44.547,20.811,45,19l1.611-.806a3.513,3.513,0,0,0,1.547-4.807C47.285,11.8,45.527,10.235,42,10H38.4a5.189,5.189,0,0,0-5.118,4.336h0a5.186,5.186,0,0,0,.478,3.173l1.852,3.7a10.5,10.5,0,1,0,8.94-.4Z" style="fill:#fff;stroke:#4c241d;stroke-linecap:round;stroke-linejoin:round;stroke-width:2px"/><circle cx="44" cy="50" r="3.5" style="fill:#fff;stroke:#4c241d;stroke-linecap:round;stroke-linejoin:round;stroke-width:2px"/><circle cx="12" cy="50" r="3.5" style="fill:#fff;stroke:#4c241d;stroke-linecap:round;stroke-linejoin:round;stroke-width:2px"/><line x1="18.5" y1="30.5" x2="17.5" y2="27.5" style="fill:none;stroke:#4c241d;stroke-linecap:round;stroke-linejoin:round;stroke-width:2px"/><path d="M14.689,18.37a2.693,2.693,0,0,0-1.27,1.614,2.694,2.694,0,0,0-2.042.221,2.984,2.984,0,0,0-.977,4.1c.832,1.5,5.159,2.475,6.9,2.693.74-1.595,2.21-5.778,1.377-7.281A2.984,2.984,0,0,0,14.689,18.37Z" style="fill:#fff;stroke:#4c241d;stroke-linecap:round;stroke-linejoin:round;stroke-width:2px"/><path d="M46,27H40V20a3,3,0,0,1,3-3h0a3,3,0,0,1,3,3Z" style="fill:#fff;stroke:#4c241d;stroke-linecap:round;stroke-linejoin:round;stroke-width:2px"/></g></svg>