<svg xmlns="http://www.w3.org/2000/svg" viewBox="0 0 64 64"><title>love-france-heart-ico</title><g id="love-france-heart-ico"><circle cx="34" cy="35" r="23" style="fill:#e5efef"/><path d="M22.973,8.665a6.775,6.775,0,0,0-4.764,2.005,6.777,6.777,0,0,0-4.765-2.005c-3.947,0-7.147,3.5-7.147,7.826s8.338,11.738,11.912,14.347C21.782,28.229,30.12,20.813,30.12,16.491S26.92,8.665,22.973,8.665Z" style="fill:#f53e28;stroke:#4c241d;stroke-linecap:round;stroke-linejoin:round;stroke-width:2px"/><path d="M49.973,35.665a6.775,6.775,0,0,0-4.764,2.005,6.777,6.777,0,0,0-4.765-2.005c-3.947,0-7.147,3.5-7.147,7.826s8.338,11.738,11.912,14.347C48.782,55.229,57.12,47.813,57.12,43.491S53.92,35.665,49.973,35.665Z" style="fill:#fff;stroke:#4c241d;stroke-linecap:round;stroke-linejoin:round;stroke-width:2px"/><line x1="26" y1="35" x2="26" y2="37" style="fill:none;stroke:#4c241d;stroke-linecap:round;stroke-linejoin:round;stroke-width:2px"/><line x1="26" y1="41" x2="26" y2="43" style="fill:none;stroke:#4c241d;stroke-linecap:round;stroke-linejoin:round;stroke-width:2px"/><line x1="22" y1="39" x2="24" y2="39" style="fill:none;stroke:#4c241d;stroke-linecap:round;stroke-linejoin:round;stroke-width:2px"/><line x1="28" y1="39" x2="30" y2="39" style="fill:none;stroke:#4c241d;stroke-linecap:round;stroke-linejoin:round;stroke-width:2px"/><circle cx="37.5" cy="7.5" r="2.5" style="fill:none;stroke:#4c241d;stroke-linecap:round;stroke-linejoin:round;stroke-width:2px"/><circle cx="4.5" cy="59.5" r="2.5" style="fill:none;stroke:#4c241d;stroke-linecap:round;stroke-linejoin:round;stroke-width:2px"/><path d="M32.651,29.1a1.069,1.069,0,1,1-1.069-1.069A1.069,1.069,0,0,1,32.651,29.1Z" style="fill:#4c241d"/><path d="M59.651,27.1a1.069,1.069,0,1,1-1.069-1.069A1.069,1.069,0,0,1,59.651,27.1Z" style="fill:#4c241d"/><path d="M6.651,4.1A1.069,1.069,0,1,1,5.582,3.029,1.069,1.069,0,0,1,6.651,4.1Z" style="fill:#4c241d"/><path d="M58.651,58.1a1.069,1.069,0,1,1-1.069-1.069A1.069,1.069,0,0,1,58.651,58.1Z" style="fill:#4c241d"/><path d="M5.651,32.1a1.069,1.069,0,1,1-1.069-1.069A1.069,1.069,0,0,1,5.651,32.1Z" style="fill:#4c241d"/><path d="M46.04,18.49a2.605,2.605,0,0,0-1.831.77,2.609,2.609,0,0,0-1.832-.77A2.887,2.887,0,0,0,39.63,21.5c0,1.661,3.2,4.512,4.579,5.515,1.373-1,4.578-3.854,4.578-5.515A2.887,2.887,0,0,0,46.04,18.49Z" style="fill:#9dc1e4;stroke:#4c241d;stroke-linecap:round;stroke-linejoin:round;stroke-width:2px"/><path d="M57.04,4.49a2.605,2.605,0,0,0-1.831.77,2.609,2.609,0,0,0-1.832-.77A2.887,2.887,0,0,0,50.63,7.5c0,1.661,3.2,4.512,4.579,5.515,1.373-1,4.578-3.854,4.578-5.515A2.887,2.887,0,0,0,57.04,4.49Z" style="fill:#fff;stroke:#4c241d;stroke-linecap:round;stroke-linejoin:round;stroke-width:2px"/><path d="M14.04,39.49a2.605,2.605,0,0,0-1.831.77,2.609,2.609,0,0,0-1.832-.77A2.887,2.887,0,0,0,7.63,42.5c0,1.661,3.205,4.512,4.579,5.515,1.373-1,4.578-3.854,4.578-5.515A2.887,2.887,0,0,0,14.04,39.49Z" style="fill:#9dc1e4;stroke:#4c241d;stroke-linecap:round;stroke-linejoin:round;stroke-width:2px"/><path d="M27.04,51.49a2.605,2.605,0,0,0-1.831.77,2.609,2.609,0,0,0-1.832-.77A2.887,2.887,0,0,0,20.63,54.5c0,1.661,3.205,4.512,4.579,5.515,1.373-1,4.578-3.854,4.578-5.515A2.887,2.887,0,0,0,27.04,51.49Z" style="fill:#f53e28;stroke:#4c241d;stroke-linecap:round;stroke-linejoin:round;stroke-width:2px"/></g></svg>