<svg xmlns="http://www.w3.org/2000/svg" viewBox="0 0 64 64"><defs><style>.cls-1{fill:none;}.cls-1,.cls-10,.cls-4,.cls-5,.cls-6,.cls-7,.cls-8,.cls-9{stroke:#4c241d;stroke-linecap:round;stroke-linejoin:round;stroke-width:2px;}.cls-2{fill:#ffe9c7;}.cls-3{fill:#4c241d;}.cls-4{fill:#e66353;}.cls-5{fill:#ffdea2;}.cls-6{fill:#bd53b5;}.cls-7{fill:#ffce56;}.cls-8{fill:#a9ba5a;}.cls-9{fill:#bf7e68;}.cls-10{fill:#fc8c29;}</style></defs><g id="dancer"><circle class="cls-1" cx="10" cy="12" r="2"/><circle class="cls-2" cx="38.5" cy="25.5" r="21.5"/><circle class="cls-3" cx="10" cy="31" r="1"/><circle class="cls-3" cx="54" cy="11" r="1"/><path class="cls-4" d="M41,11V8.82A7.82,7.82,0,0,0,33.18,1h-.36a7.83,7.83,0,0,0-7.65,6.2A2,2,0,0,0,24,9.05V12a2,2,0,0,0,1,1.75V22H41a2,2,0,0,0,2-2V13A2,2,0,0,0,41,11Z"/><path class="cls-5" d="M38,15V7a5.23,5.23,0,0,0-5.15-5h0A4.88,4.88,0,0,0,28,6.92l.07,4.48A3.72,3.72,0,0,0,32,15Z"/><path class="cls-5" d="M56,18H35V15H31v3H10a2,2,0,0,0,0,4H26l2.19,8.47L26,38H40l-2.19-7.5L40,22H56a2,2,0,0,0,0-4Z"/><circle class="cls-6" cx="36.5" cy="24" r="3.5"/><polyline class="cls-5" points="26 62 25 44 32 44 30 62"/><polyline class="cls-5" points="40 62 41 44 34 44 36 62"/><circle class="cls-6" cx="29.5" cy="24" r="3.5"/><circle class="cls-3" cx="33" cy="35" r="1"/><path class="cls-7" d="M38,42h0a5,5,0,0,1,5,5v6a0,0,0,0,1,0,0h0a5,5,0,0,1-5-5V42A0,0,0,0,1,38,42Z" transform="translate(81 95) rotate(-180)"/><path class="cls-4" d="M38,38h0a5,5,0,0,1,5,5v3a0,0,0,0,1,0,0h0a5,5,0,0,1-5-5V38A0,0,0,0,1,38,38Z" transform="translate(81 84) rotate(-180)"/><path class="cls-8" d="M33,38h5a0,0,0,0,1,0,0v6a5,5,0,0,1-5,5h0a0,0,0,0,1,0,0V38A0,0,0,0,1,33,38Z"/><path class="cls-9" d="M28,42h0a0,0,0,0,1,0,0v6a5,5,0,0,1-5,5h0a0,0,0,0,1,0,0V47A5,5,0,0,1,28,42Z"/><path class="cls-10" d="M28,38h0a0,0,0,0,1,0,0v3a5,5,0,0,1-5,5h0a0,0,0,0,1,0,0V43A5,5,0,0,1,28,38Z"/><path class="cls-6" d="M28,38h0a5,5,0,0,1,5,5v6a0,0,0,0,1,0,0H28a0,0,0,0,1,0,0V38A0,0,0,0,1,28,38Z" transform="translate(61 87) rotate(180)"/><line class="cls-1" x1="54" y1="30" x2="54" y2="34"/><line class="cls-1" x1="52" y1="32" x2="56" y2="32"/></g></svg>