<svg xmlns="http://www.w3.org/2000/svg" viewBox="0 0 64 64"><title>balet</title><g id="balet"><circle cx="31" cy="30" r="23" style="fill:#edebdc"/><path d="M22.414,11.921,34.668,25.457a1.691,1.691,0,0,1-.142,2.427h0a1.692,1.692,0,0,1-2.509-.338L21.46,12.743Z" style="fill:#ffe8dc;stroke:#4c241d;stroke-linecap:round;stroke-linejoin:round;stroke-width:2px"/><polygon points="36.762 25.231 33.9 25.37 39 31 40.25 26.001 36.762 25.231" style="fill:#ffe8dc;stroke:#4c241d;stroke-linecap:round;stroke-linejoin:round;stroke-width:2px"/><path d="M22.323,26.017,19.5,21.5l3-13-3-4v5L16.252,20.867a8.018,8.018,0,0,0,.265,5.176L19.5,33.5l5,28h6l-4-3v-19" style="fill:#ffe8dc;stroke:#4c241d;stroke-linecap:round;stroke-linejoin:round;stroke-width:2px"/><line x1="51" y1="3" x2="51" y2="6" style="fill:none;stroke:#4c241d;stroke-linecap:round;stroke-linejoin:round;stroke-width:2px"/><line x1="51" y1="10" x2="51" y2="13" style="fill:none;stroke:#4c241d;stroke-linecap:round;stroke-linejoin:round;stroke-width:2px"/><line x1="49" y1="8" x2="46" y2="8" style="fill:none;stroke:#4c241d;stroke-linecap:round;stroke-linejoin:round;stroke-width:2px"/><line x1="56" y1="8" x2="53" y2="8" style="fill:none;stroke:#4c241d;stroke-linecap:round;stroke-linejoin:round;stroke-width:2px"/><circle cx="58" cy="19" r="1" style="fill:#4c241d"/><circle cx="41" cy="48" r="1" style="fill:#4c241d"/><circle cx="8" cy="33" r="1" style="fill:#4c241d"/><path d="M29,30l-7.291-5.628S14.181,32.913,21,45l6-4,.172-2.079,5.44-3.155L38,34l1-3-5.1-5.63Z" style="fill:#bd53b5;stroke:#4c241d;stroke-linecap:round;stroke-linejoin:round;stroke-width:2px"/><circle cx="7.5" cy="9.5" r="2.5" style="fill:none;stroke:#4c241d;stroke-linecap:round;stroke-linejoin:round;stroke-width:2px"/><path d="M43,26V20a3.636,3.636,0,0,0-3.575-3.555h0a3.47,3.47,0,0,0-3.347,3.588L36,23a3.22,3.22,0,0,0,3,3Z" style="fill:#ffe8dc;stroke:#4c241d;stroke-linecap:round;stroke-linejoin:round;stroke-width:2px"/><path d="M55,29.067l-18.253-.451A1.692,1.692,0,0,0,35,30.307h0a1.693,1.693,0,0,0,1.894,1.681L55,30.326Z" style="fill:#ffe8dc;stroke:#4c241d;stroke-linecap:round;stroke-linejoin:round;stroke-width:2px"/><line x1="19.552" y1="28.184" x2="22.552" y2="29.184" style="fill:none;stroke:#4c241d;stroke-linecap:round;stroke-linejoin:round;stroke-width:2px"/><line x1="18.589" y1="34" x2="21.589" y2="34" style="fill:none;stroke:#4c241d;stroke-linecap:round;stroke-linejoin:round;stroke-width:2px"/><line x1="19" y1="40" x2="21" y2="39" style="fill:none;stroke:#4c241d;stroke-linecap:round;stroke-linejoin:round;stroke-width:2px"/></g></svg>