<svg xmlns="http://www.w3.org/2000/svg" viewBox="0 0 64 64"><defs><style>.cls-1{fill:#ffe9c7;}.cls-2,.cls-7{fill:none;}.cls-10,.cls-2,.cls-3,.cls-5,.cls-6,.cls-8,.cls-9{stroke:#4c241d;}.cls-10,.cls-2,.cls-3,.cls-5,.cls-6,.cls-7,.cls-8,.cls-9{stroke-linecap:round;stroke-linejoin:round;stroke-width:2px;}.cls-3{fill:#a9ba5a;}.cls-4{fill:#4c241d;}.cls-5{fill:#b5a19c;}.cls-6{fill:#9dc1e4;}.cls-7{stroke:#bf7e68;}.cls-8{fill:#bf7e68;}.cls-9{fill:#6b4f5b;}.cls-10{fill:#ffce56;}</style></defs><g id="coffee"><circle class="cls-1" cx="34.5" cy="27.5" r="21.5"/><line class="cls-2" x1="8" y1="33" x2="8" y2="35"/><line class="cls-2" x1="8" y1="39" x2="8" y2="41"/><line class="cls-2" x1="4" y1="37" x2="6" y2="37"/><polygon class="cls-3" points="42 56 22 56 20 25 44 25 42 56"/><line class="cls-2" x1="10" y1="37" x2="12" y2="37"/><circle class="cls-2" cx="54.5" cy="25.5" r="2.5"/><circle class="cls-4" cx="13.54" cy="23.6" r="1.07"/><path class="cls-5" d="M3,56H63a0,0,0,0,1,0,0v0a4,4,0,0,1-4,4H7a4,4,0,0,1-4-4v0A0,0,0,0,1,3,56Z"/><circle class="cls-6" cx="32" cy="44" r="4"/><path class="cls-6" d="M28.56,42.43S33.47,42,35.4,46.1"/><path class="cls-7" d="M37,16a2,2,0,0,0,0-4,2,2,0,0,0,2-2h0a2,2,0,0,0-2-2H32a2,2,0,0,0,2-2h0a2,2,0,0,0-.28-1"/><path class="cls-7" d="M28.28,4H21a2,2,0,0,0-2,2h0a2,2,0,0,0,2,2h5a2,2,0,0,0-2,2h0a2,2,0,0,0,2,2h6a2,2,0,0,0,0,4"/><ellipse class="cls-8" cx="44" cy="49" rx="5" ry="7"/><path class="cls-8" d="M44.56,42.42s-3.12,2.86-1.3,6.41a8.83,8.83,0,0,1,.37,7"/><ellipse class="cls-8" cx="53" cy="50" rx="7" ry="5" transform="translate(-19.62 44.07) rotate(-38.66)"/><path class="cls-8" d="M58.49,46.33s-4.18-.66-5.82,3A8.79,8.79,0,0,1,47.45,54"/><rect class="cls-9" x="18" y="21" width="28" height="4"/><polygon class="cls-10" points="20.32 30 20.58 34 43.42 34 43.68 30 20.32 30"/></g></svg>