<svg xmlns="http://www.w3.org/2000/svg" viewBox="0 0 64 64"><title>symbol</title><g id="symbol"><circle cx="35.5" cy="24.5" r="21.5" style="fill:#e5efef"/><circle cx="8" cy="47" r="2" style="fill:none;stroke:#4c241d;stroke-linecap:round;stroke-linejoin:round;stroke-width:2px"/><circle cx="47.044" cy="10.014" r="1.069" style="fill:#4c241d"/><line x1="54" y1="17" x2="57" y2="20" style="fill:none;stroke:#4c241d;stroke-linecap:round;stroke-linejoin:round;stroke-width:2px"/><line x1="57" y1="17" x2="54" y2="20" style="fill:none;stroke:#4c241d;stroke-linecap:round;stroke-linejoin:round;stroke-width:2px"/><path d="M49,24H36.724a9.5,9.5,0,1,0-8.448,0H16v6H29L19,58H46L36,30H49ZM32.5,11A4.5,4.5,0,1,1,28,15.5,4.5,4.5,0,0,1,32.5,11Zm-5,43A2.5,2.5,0,1,1,30,51.5,2.5,2.5,0,0,1,27.5,54Zm5-8A2.5,2.5,0,1,1,35,43.5,2.5,2.5,0,0,1,32.5,46Zm5,3A2.5,2.5,0,1,1,35,51.5,2.5,2.5,0,0,1,37.5,49Z" style="fill:#ffce56;stroke:#4c241d;stroke-linecap:round;stroke-linejoin:round;stroke-width:2px"/><line x1="12" y1="4" x2="12" y2="6" style="fill:none;stroke:#4c241d;stroke-linecap:round;stroke-linejoin:round;stroke-width:2px"/><line x1="12" y1="10" x2="12" y2="12" style="fill:none;stroke:#4c241d;stroke-linecap:round;stroke-linejoin:round;stroke-width:2px"/><line x1="8" y1="8" x2="10" y2="8" style="fill:none;stroke:#4c241d;stroke-linecap:round;stroke-linejoin:round;stroke-width:2px"/><line x1="14" y1="8" x2="16" y2="8" style="fill:none;stroke:#4c241d;stroke-linecap:round;stroke-linejoin:round;stroke-width:2px"/></g></svg>