<svg xmlns="http://www.w3.org/2000/svg" viewBox="0 0 64 64"><title>harp</title><g id="harp"><circle cx="37.5" cy="40.5" r="21.5" style="fill:#e5efef"/><circle cx="53.044" cy="51.014" r="1.069" style="fill:#4c241d"/><circle cx="7.044" cy="42.014" r="1.069" style="fill:#4c241d"/><path d="M15,39H42S38,65,11,59C11,59,16,45,15,39Z" style="fill:#bf7e68;stroke:#4c241d;stroke-linecap:round;stroke-linejoin:round;stroke-width:2px"/><path d="M17.845,61.536a30.411,30.411,0,0,1-8.288-1.1,1.5,1.5,0,0,1-.7-2.409c.458-.541,11.158-13.579-.191-35.33a1.5,1.5,0,0,1,.483-1.932C10.332,19.955,38.28,1,59.5,1a1.5,1.5,0,0,1,0,3C41.49,4,17.337,19.008,11.943,22.514c9.033,18.3,3.444,30.9.572,35.52,3.54.639,11,1.288,17.4-2.72,5.865-3.672,9.6-10.417,11.107-20.045,2.514-16.09,6.55-26.243,11.672-29.363a5.312,5.312,0,0,1,4.285-.829,1.5,1.5,0,0,1-.894,2.863,2.916,2.916,0,0,0-2.059.676C51.6,10.26,47.07,15.97,43.982,35.731c-1.647,10.541-5.854,17.991-12.5,22.143A25.606,25.606,0,0,1,17.845,61.536Z" style="fill:#bf7e68;stroke:#4c241d;stroke-linecap:round;stroke-linejoin:round;stroke-width:2px"/><line x1="18" y1="19" x2="18" y2="39" style="fill:none;stroke:#4c241d;stroke-linecap:round;stroke-linejoin:round;stroke-width:2px"/><line x1="22" y1="17" x2="22" y2="39" style="fill:none;stroke:#4c241d;stroke-linecap:round;stroke-linejoin:round;stroke-width:2px"/><line x1="26" y1="15" x2="26" y2="39" style="fill:none;stroke:#4c241d;stroke-linecap:round;stroke-linejoin:round;stroke-width:2px"/><line x1="30" y1="12.852" x2="30" y2="39" style="fill:none;stroke:#4c241d;stroke-linecap:round;stroke-linejoin:round;stroke-width:2px"/><line x1="34" y1="11" x2="34" y2="39" style="fill:none;stroke:#4c241d;stroke-linecap:round;stroke-linejoin:round;stroke-width:2px"/><line x1="38" y1="9" x2="38" y2="39" style="fill:none;stroke:#4c241d;stroke-linecap:round;stroke-linejoin:round;stroke-width:2px"/><line x1="42" y1="8" x2="42" y2="30" style="fill:none;stroke:#4c241d;stroke-linecap:round;stroke-linejoin:round;stroke-width:2px"/><line x1="46" y1="7" x2="46" y2="15" style="fill:none;stroke:#4c241d;stroke-linecap:round;stroke-linejoin:round;stroke-width:2px"/><circle cx="20" cy="53" r="2" style="fill:#ffce56;stroke:#4c241d;stroke-linecap:round;stroke-linejoin:round;stroke-width:2px"/><line x1="54" y1="24" x2="54" y2="32" style="fill:none;stroke:#4c241d;stroke-linecap:round;stroke-linejoin:round;stroke-width:2px"/><ellipse cx="51.5" cy="32" rx="2.5" ry="2" style="fill:#b5a19c;stroke:#4c241d;stroke-linecap:round;stroke-linejoin:round;stroke-width:2px"/><line x1="60" y1="31" x2="60" y2="39" style="fill:none;stroke:#4c241d;stroke-linecap:round;stroke-linejoin:round;stroke-width:2px"/><ellipse cx="57.5" cy="39" rx="2.5" ry="2" style="fill:#b5a19c;stroke:#4c241d;stroke-linecap:round;stroke-linejoin:round;stroke-width:2px"/><line x1="10" y1="3" x2="10" y2="11" style="fill:none;stroke:#4c241d;stroke-linecap:round;stroke-linejoin:round;stroke-width:2px"/><ellipse cx="7.5" cy="11" rx="2.5" ry="2" style="fill:#b5a19c;stroke:#4c241d;stroke-linecap:round;stroke-linejoin:round;stroke-width:2px"/></g></svg>