<svg xmlns="http://www.w3.org/2000/svg" viewBox="0 0 64 64"><title>rain</title><g id="rain"><circle cx="33.5" cy="33.5" r="21.5" style="fill:#eaeaea"/><circle cx="36" cy="21" r="13" style="fill:#fc8c29;stroke:#4c241d;stroke-linecap:round;stroke-linejoin:round;stroke-width:2px"/><line x1="36" y1="1" x2="36" y2="3" style="fill:none;stroke:#4c241d;stroke-linecap:round;stroke-linejoin:round;stroke-width:2px"/><line x1="56" y1="21" x2="54" y2="21" style="fill:none;stroke:#4c241d;stroke-linecap:round;stroke-linejoin:round;stroke-width:2px"/><line x1="49" y1="8" x2="51" y2="6" style="fill:none;stroke:#4c241d;stroke-linecap:round;stroke-linejoin:round;stroke-width:2px"/><path d="M9.067,12.26A9.5,9.5,0,1,0,18,6a9.476,9.476,0,0,0-8.933,6.26" style="fill:#fff;stroke:#4c241d;stroke-linecap:round;stroke-linejoin:round;stroke-width:2px"/><path d="M19.5,17.5A7.5,7.5,0,1,1,27,25H9.169a5.611,5.611,0,0,1-5.655-5.108,5.5,5.5,0,0,1,5.878-5.878,5.283,5.283,0,0,1,2.026.558" style="fill:#fff;stroke:#4c241d;stroke-linecap:round;stroke-linejoin:round;stroke-width:2px"/><path d="M36.067,29.26A9.5,9.5,0,1,0,45,23a9.476,9.476,0,0,0-8.933,6.26" style="fill:#fff;stroke:#4c241d;stroke-linecap:round;stroke-linejoin:round;stroke-width:2px"/><path d="M46.5,34.5A7.5,7.5,0,1,1,54,42H36.169a5.611,5.611,0,0,1-5.655-5.108,5.5,5.5,0,0,1,5.878-5.878,5.283,5.283,0,0,1,2.026.558" style="fill:#fff;stroke:#4c241d;stroke-linecap:round;stroke-linejoin:round;stroke-width:2px"/><line x1="11" y1="32" x2="9.786" y2="34.185" style="fill:none;stroke:#00ccca;stroke-linecap:round;stroke-linejoin:round;stroke-width:2px"/><line x1="7.214" y1="38.815" x2="6" y2="41" style="fill:none;stroke:#00ccca;stroke-linecap:round;stroke-linejoin:round;stroke-width:2px"/><line x1="15" y1="32" x2="13.786" y2="34.185" style="fill:none;stroke:#02eae6;stroke-linecap:round;stroke-linejoin:round;stroke-width:2px"/><line x1="11.214" y1="38.815" x2="10" y2="41" style="fill:none;stroke:#02eae6;stroke-linecap:round;stroke-linejoin:round;stroke-width:2px"/><line x1="20" y1="32" x2="18.786" y2="34.185" style="fill:none;stroke:#00ccca;stroke-linecap:round;stroke-linejoin:round;stroke-width:2px"/><line x1="16.214" y1="38.815" x2="15" y2="41" style="fill:none;stroke:#00ccca;stroke-linecap:round;stroke-linejoin:round;stroke-width:2px"/><line x1="24" y1="32" x2="22.786" y2="34.185" style="fill:none;stroke:#02eae6;stroke-linecap:round;stroke-linejoin:round;stroke-width:2px"/><line x1="20.214" y1="38.815" x2="19" y2="41" style="fill:none;stroke:#02eae6;stroke-linecap:round;stroke-linejoin:round;stroke-width:2px"/><line x1="28" y1="48" x2="26.786" y2="50.185" style="fill:none;stroke:#00ccca;stroke-linecap:round;stroke-linejoin:round;stroke-width:2px"/><line x1="24.214" y1="54.815" x2="23" y2="57" style="fill:none;stroke:#00ccca;stroke-linecap:round;stroke-linejoin:round;stroke-width:2px"/><line x1="32" y1="48" x2="30.786" y2="50.185" style="fill:none;stroke:#02eae6;stroke-linecap:round;stroke-linejoin:round;stroke-width:2px"/><line x1="28.214" y1="54.815" x2="27" y2="57" style="fill:none;stroke:#02eae6;stroke-linecap:round;stroke-linejoin:round;stroke-width:2px"/><line x1="37" y1="48" x2="35.786" y2="50.185" style="fill:none;stroke:#00ccca;stroke-linecap:round;stroke-linejoin:round;stroke-width:2px"/><line x1="33.214" y1="54.815" x2="32" y2="57" style="fill:none;stroke:#00ccca;stroke-linecap:round;stroke-linejoin:round;stroke-width:2px"/><line x1="41" y1="48" x2="39.786" y2="50.185" style="fill:none;stroke:#02eae6;stroke-linecap:round;stroke-linejoin:round;stroke-width:2px"/><line x1="37.214" y1="54.815" x2="36" y2="57" style="fill:none;stroke:#02eae6;stroke-linecap:round;stroke-linejoin:round;stroke-width:2px"/><line x1="45" y1="48" x2="43.786" y2="50.185" style="fill:none;stroke:#00ccca;stroke-linecap:round;stroke-linejoin:round;stroke-width:2px"/><line x1="41.214" y1="54.815" x2="40" y2="57" style="fill:none;stroke:#00ccca;stroke-linecap:round;stroke-linejoin:round;stroke-width:2px"/><line x1="49" y1="48" x2="47.786" y2="50.185" style="fill:none;stroke:#02eae6;stroke-linecap:round;stroke-linejoin:round;stroke-width:2px"/><line x1="45.214" y1="54.815" x2="44" y2="57" style="fill:none;stroke:#02eae6;stroke-linecap:round;stroke-linejoin:round;stroke-width:2px"/><line x1="54" y1="48" x2="52.786" y2="50.185" style="fill:none;stroke:#00ccca;stroke-linecap:round;stroke-linejoin:round;stroke-width:2px"/><line x1="50.214" y1="54.815" x2="49" y2="57" style="fill:none;stroke:#00ccca;stroke-linecap:round;stroke-linejoin:round;stroke-width:2px"/><line x1="58" y1="48" x2="56.786" y2="50.185" style="fill:none;stroke:#02eae6;stroke-linecap:round;stroke-linejoin:round;stroke-width:2px"/><line x1="54.214" y1="54.815" x2="53" y2="57" style="fill:none;stroke:#02eae6;stroke-linecap:round;stroke-linejoin:round;stroke-width:2px"/></g></svg>