<svg xmlns="http://www.w3.org/2000/svg" viewBox="0 0 64 64"><title>excalibur</title><g id="excalibur"><circle cx="37.5" cy="23.5" r="21.5" style="fill:#eaeaea"/><line x1="55.129" y1="19" x2="52.181" y2="21.948" style="fill:none;stroke:#4c241d;stroke-linecap:round;stroke-linejoin:round;stroke-width:2px"/><line x1="52.181" y1="19" x2="55.129" y2="21.948" style="fill:none;stroke:#4c241d;stroke-linecap:round;stroke-linejoin:round;stroke-width:2px"/><circle cx="38.5" cy="11.5" r="2.5" style="fill:none;stroke:#4c241d;stroke-linecap:round;stroke-linejoin:round;stroke-width:2px"/><polygon points="35 50 61 50 53 55 37 55 35 50" style="fill:#d6d6d6;stroke:#4c241d;stroke-linecap:round;stroke-linejoin:round;stroke-width:2px"/><polyline points="2 62 8 53 17 49 35 47 37 55 53 55 55 60 57 62" style="fill:#eaeaea;stroke:#4c241d;stroke-linecap:round;stroke-linejoin:round;stroke-width:2px"/><path d="M20,1h2a3,3,0,0,1,3,3V25a0,0,0,0,1,0,0H17a0,0,0,0,1,0,0V4A3,3,0,0,1,20,1Z" style="fill:#bf7e68;stroke:#4c241d;stroke-linecap:round;stroke-linejoin:round;stroke-width:2px"/><polyline points="16 56 14 31 28 31 26 56" style="fill:#fff;stroke:#4c241d;stroke-linecap:round;stroke-linejoin:round;stroke-width:2px"/><line x1="21" y1="34" x2="21" y2="52" style="fill:none;stroke:#d6d6d6;stroke-linecap:round;stroke-linejoin:round;stroke-width:2px"/><circle cx="21" cy="10" r="5" style="fill:#ffce56;stroke:#4c241d;stroke-linecap:round;stroke-linejoin:round;stroke-width:2px"/><rect x="17" y="25" width="8" height="4" style="fill:#e66353;stroke:#4c241d;stroke-linecap:round;stroke-linejoin:round;stroke-width:2px"/><polygon points="34 28 34 29 8 29 8 28 5 28 5 34 8 34 8 32 21 34 34 32 34 34 37 34 37 28 34 28" style="fill:#ffce56;stroke:#4c241d;stroke-linecap:round;stroke-linejoin:round;stroke-width:2px"/><line x1="21" y1="56" x2="30" y2="56" style="fill:none;stroke:#4c241d;stroke-linecap:round;stroke-linejoin:round;stroke-width:2px"/><polyline points="63 62 63 55 61 50" style="fill:none;stroke:#4c241d;stroke-linecap:round;stroke-linejoin:round;stroke-width:2px"/><line x1="37.5" y1="42.5" x2="37.5" y2="37.5" style="fill:none;stroke:#4c241d;stroke-linecap:round;stroke-linejoin:round;stroke-width:2px"/><line x1="34.5" y1="42.5" x2="32.5" y2="39.5" style="fill:none;stroke:#4c241d;stroke-linecap:round;stroke-linejoin:round;stroke-width:2px"/><line x1="42.5" y1="39.5" x2="40.5" y2="42.5" style="fill:none;stroke:#4c241d;stroke-linecap:round;stroke-linejoin:round;stroke-width:2px"/></g></svg>