<svg xmlns="http://www.w3.org/2000/svg" viewBox="0 0 64 64"><title>sword</title><g id="sword"><circle cx="53.5" cy="17.5" r="2.5" style="fill:none;stroke:#4c241d;stroke-linecap:round;stroke-linejoin:round;stroke-width:2px"/><circle cx="5" cy="29" r="1" style="fill:#4c241d"/><circle cx="26" cy="60" r="1" style="fill:#4c241d"/><circle cx="39.5" cy="29.5" r="21.5" style="fill:#e5efef"/><line x1="48" y1="28.463" x2="48" y2="29.878" style="fill:none;stroke:#4c241d;stroke-linecap:round;stroke-linejoin:round;stroke-width:2px"/><line x1="48" y1="34.122" x2="48" y2="35.537" style="fill:none;stroke:#4c241d;stroke-linecap:round;stroke-linejoin:round;stroke-width:2px"/><line x1="44.463" y1="32" x2="45.878" y2="32" style="fill:none;stroke:#4c241d;stroke-linecap:round;stroke-linejoin:round;stroke-width:2px"/><line x1="50.122" y1="32" x2="51.537" y2="32" style="fill:none;stroke:#4c241d;stroke-linecap:round;stroke-linejoin:round;stroke-width:2px"/><line x1="11" y1="45.463" x2="11" y2="46.878" style="fill:none;stroke:#4c241d;stroke-linecap:round;stroke-linejoin:round;stroke-width:2px"/><line x1="11" y1="51.122" x2="11" y2="52.537" style="fill:none;stroke:#4c241d;stroke-linecap:round;stroke-linejoin:round;stroke-width:2px"/><line x1="7.463" y1="49" x2="8.878" y2="49" style="fill:none;stroke:#4c241d;stroke-linecap:round;stroke-linejoin:round;stroke-width:2px"/><line x1="13.122" y1="49" x2="14.537" y2="49" style="fill:none;stroke:#4c241d;stroke-linecap:round;stroke-linejoin:round;stroke-width:2px"/><path d="M31.038,45.411a75.123,75.123,0,0,0,8.549,3.382l2.1-2.975S12.482,30.984,7.678,3.067c0,0-7.952,25.99,21.014,41.177" style="fill:#ffce56;stroke:#4c241d;stroke-linecap:round;stroke-linejoin:round;stroke-width:2px"/><rect x="39.243" y="50.985" width="20.339" height="3.929" transform="translate(35.525 -18.131) rotate(31.966)" style="fill:#e66353;stroke:#4c241d;stroke-linecap:round;stroke-linejoin:round;stroke-width:2px"/><rect x="39.408" y="45.387" width="7" height="7" transform="translate(-9.92 10.937) rotate(-13.034)" style="fill:#bd53b5;stroke:#4c241d;stroke-linecap:round;stroke-linejoin:round;stroke-width:2px"/><polyline points="51 43 48 41 38 57 42 59" style="fill:none;stroke:#4c241d;stroke-linecap:round;stroke-linejoin:round;stroke-width:2px"/><line x1="51" y1="52" x2="49" y2="55" style="fill:none;stroke:#4c241d;stroke-linecap:round;stroke-linejoin:round;stroke-width:2px"/><line x1="54.86" y1="54.211" x2="52.869" y2="57.196" style="fill:none;stroke:#4c241d;stroke-linecap:round;stroke-linejoin:round;stroke-width:2px"/><path d="M19,11.729S23.926,2.58,38,6.8" style="fill:none;stroke:#00ccca;stroke-linecap:round;stroke-linejoin:round;stroke-width:2px"/><path d="M28.09,24.1S30.55,9.545,51.418,8.813" style="fill:none;stroke:#00ccca;stroke-linecap:round;stroke-linejoin:round;stroke-width:2px"/><path d="M23,17a17.438,17.438,0,0,1,8.132-6.832" style="fill:none;stroke:#00ccca;stroke-linecap:round;stroke-linejoin:round;stroke-width:2px"/></g></svg>