<svg xmlns="http://www.w3.org/2000/svg" viewBox="0 0 64 64"><title>mona-lisa-display-museum-ico</title><g id="mona-lisa-display-museum-ico"><circle cx="33" cy="29" r="23" style="fill:#e5efef"/><line x1="8" y1="5" x2="8" y2="7" style="fill:none;stroke:#4c241d;stroke-linecap:round;stroke-linejoin:round;stroke-width:2px"/><line x1="8" y1="11" x2="8" y2="13" style="fill:none;stroke:#4c241d;stroke-linecap:round;stroke-linejoin:round;stroke-width:2px"/><line x1="4" y1="9" x2="6" y2="9" style="fill:none;stroke:#4c241d;stroke-linecap:round;stroke-linejoin:round;stroke-width:2px"/><line x1="10" y1="9" x2="12" y2="9" style="fill:none;stroke:#4c241d;stroke-linecap:round;stroke-linejoin:round;stroke-width:2px"/><circle cx="56.5" cy="28.5" r="2.5" style="fill:none;stroke:#4c241d;stroke-linecap:round;stroke-linejoin:round;stroke-width:2px"/><path d="M7.151,29.6a1.069,1.069,0,1,1-1.069-1.069A1.069,1.069,0,0,1,7.151,29.6Z" style="fill:#4c241d"/><path d="M56.151,10.6a1.069,1.069,0,1,1-1.069-1.069A1.069,1.069,0,0,1,56.151,10.6Z" style="fill:#4c241d"/><path d="M15,41c0,14.8,35,14.8,35,0" style="fill:none;stroke:#4c241d;stroke-linecap:round;stroke-linejoin:round;stroke-width:2px"/><path d="M3.921,51.407C10.075,50.021,15,46.551,15,41" style="fill:none;stroke:#4c241d;stroke-linecap:round;stroke-linejoin:round;stroke-width:2px"/><path d="M61.079,51.407C54.925,50.021,50,46.551,50,41" style="fill:none;stroke:#4c241d;stroke-linecap:round;stroke-linejoin:round;stroke-width:2px"/><circle cx="15" cy="41" r="3" style="fill:#ffec95;stroke:#4c241d;stroke-linecap:round;stroke-linejoin:round;stroke-width:2px"/><line x1="15" y1="45" x2="15" y2="61" style="fill:#ffec95;stroke:#4c241d;stroke-linecap:round;stroke-linejoin:round;stroke-width:2px"/><circle cx="50" cy="41" r="3" style="fill:#ffec95;stroke:#4c241d;stroke-linecap:round;stroke-linejoin:round;stroke-width:2px"/><line x1="50" y1="45" x2="50" y2="61" style="fill:#ffec95;stroke:#4c241d;stroke-linecap:round;stroke-linejoin:round;stroke-width:2px"/><rect x="19" y="7" width="26" height="26" style="fill:#bf7e68;stroke:#4c241d;stroke-linecap:round;stroke-linejoin:round;stroke-width:2px"/><rect x="23" y="11" width="18" height="18" style="fill:#9dc1e4;stroke:#4c241d;stroke-linecap:round;stroke-linejoin:round;stroke-width:2px"/><rect x="23" y="18" width="18" height="11" style="fill:#a9ba5a;stroke:#4c241d;stroke-linecap:round;stroke-linejoin:round;stroke-width:2px"/><path d="M36,29H28V25a4,4,0,0,1,4-4h0a4,4,0,0,1,4,4Z" style="fill:#6b4f5b;stroke:#4c241d;stroke-linecap:round;stroke-linejoin:round;stroke-width:2px"/><line x1="41" y1="11" x2="45" y2="7" style="fill:none;stroke:#4c241d;stroke-linecap:round;stroke-linejoin:round;stroke-width:2px"/><line x1="41" y1="29" x2="45" y2="33" style="fill:none;stroke:#4c241d;stroke-linecap:round;stroke-linejoin:round;stroke-width:2px"/><line x1="19" y1="7" x2="23" y2="11" style="fill:none;stroke:#4c241d;stroke-linecap:round;stroke-linejoin:round;stroke-width:2px"/><line x1="19" y1="33" x2="23" y2="29" style="fill:none;stroke:#4c241d;stroke-linecap:round;stroke-linejoin:round;stroke-width:2px"/><path d="M32,21h0a2,2,0,0,1-2-2V17a2,2,0,0,1,2-2h0a2,2,0,0,1,2,2v2A2,2,0,0,1,32,21Z" style="fill:#e7d1c4;stroke:#4c241d;stroke-linecap:round;stroke-linejoin:round;stroke-width:2px"/><line x1="34" y1="22" x2="29" y2="28" style="fill:none;stroke:#4c241d;stroke-linecap:round;stroke-linejoin:round;stroke-width:2px"/></g></svg>