<svg xmlns="http://www.w3.org/2000/svg" viewBox="0 0 64 64"><title>accordion</title><g id="accordion"><circle cx="39" cy="23" r="23" style="fill:#edebdc"/><ellipse cx="27.5" cy="9.5" rx="2.5" ry="1.5" style="fill:#4c241d"/><line x1="29" y1="4" x2="29" y2="9.381" style="fill:none;stroke:#4c241d;stroke-linecap:round;stroke-linejoin:round;stroke-width:2px"/><ellipse cx="39.5" cy="14.5" rx="2.5" ry="1.5" style="fill:#4c241d"/><line x1="41" y1="9" x2="41" y2="14.381" style="fill:none;stroke:#4c241d;stroke-linecap:round;stroke-linejoin:round;stroke-width:2px"/><ellipse cx="59.5" cy="60.5" rx="2.5" ry="1.5" style="fill:#4c241d"/><line x1="61" y1="55" x2="61" y2="60.381" style="fill:none;stroke:#4c241d;stroke-linecap:round;stroke-linejoin:round;stroke-width:2px"/><rect x="5" y="30" width="13" height="6" style="fill:#fff;stroke:#4c241d;stroke-linecap:round;stroke-linejoin:round;stroke-width:2px"/><rect x="5" y="36" width="13" height="6" style="fill:#fff;stroke:#4c241d;stroke-linecap:round;stroke-linejoin:round;stroke-width:2px"/><rect x="5" y="42" width="13" height="6" style="fill:#fff;stroke:#4c241d;stroke-linecap:round;stroke-linejoin:round;stroke-width:2px"/><rect x="5" y="24" width="13" height="6" style="fill:#fff;stroke:#4c241d;stroke-linecap:round;stroke-linejoin:round;stroke-width:2px"/><path d="M7.77,18H18a0,0,0,0,1,0,0v6a0,0,0,0,1,0,0H5a0,0,0,0,1,0,0V20.77A2.77,2.77,0,0,1,7.77,18Z" style="fill:#fff;stroke:#4c241d;stroke-linecap:round;stroke-linejoin:round;stroke-width:2px"/><path d="M5,48H18a0,0,0,0,1,0,0v6a0,0,0,0,1,0,0H7.77A2.77,2.77,0,0,1,5,51.23V48A0,0,0,0,1,5,48Z" style="fill:#fff;stroke:#4c241d;stroke-linecap:round;stroke-linejoin:round;stroke-width:2px"/><rect x="10" y="28" width="8" height="4" style="fill:#6b4f5b;stroke:#4c241d;stroke-linecap:round;stroke-linejoin:round;stroke-width:2px"/><rect x="10" y="40" width="8" height="4" style="fill:#6b4f5b;stroke:#4c241d;stroke-linecap:round;stroke-linejoin:round;stroke-width:2px"/><polygon points="24 56 18 54 18 18 24 16 24 56" style="fill:#fc8c29;stroke:#4c241d;stroke-linecap:round;stroke-linejoin:round;stroke-width:2px"/><rect x="24" y="16" width="7" height="40" style="fill:#e66353;stroke:#4c241d;stroke-linecap:round;stroke-linejoin:round;stroke-width:2px"/><polygon points="35 50 31 53 31 19 35 22 35 50" style="fill:#ffce56;stroke:#4c241d;stroke-linecap:round;stroke-linejoin:round;stroke-width:2px"/><polygon points="35 50 39 53 39 19 35 22 35 50" style="fill:#ffce56;stroke:#4c241d;stroke-linecap:round;stroke-linejoin:round;stroke-width:2px"/><polygon points="43 50 39 53 39 19 43 22 43 50" style="fill:#ffce56;stroke:#4c241d;stroke-linecap:round;stroke-linejoin:round;stroke-width:2px"/><polygon points="43 50 47 53 47 19 43 22 43 50" style="fill:#ffce56;stroke:#4c241d;stroke-linecap:round;stroke-linejoin:round;stroke-width:2px"/><polygon points="47.913 53.761 54.865 54.576 59.053 18.82 52.101 18.006 52.334 16.019 47.368 15.438 42.714 55.166 47.68 55.748 47.913 53.761" style="fill:#e66353;stroke:#4c241d;stroke-linecap:round;stroke-linejoin:round;stroke-width:2px"/><rect x="49.983" y="25.291" width="7" height="22" transform="matrix(0.993, 0.116, -0.116, 0.993, 4.585, -5.976)" style="fill:#6b4f5b;stroke:#4c241d;stroke-linecap:round;stroke-linejoin:round;stroke-width:2px"/><circle cx="54.794" cy="29.397" r="1.073" style="fill:#4c241d"/><circle cx="54.329" cy="33.369" r="1.073" style="fill:#4c241d"/><circle cx="53.863" cy="37.342" r="1.073" style="fill:#4c241d"/><circle cx="53.398" cy="41.315" r="1.073" style="fill:#4c241d"/></g></svg>