<svg xmlns="http://www.w3.org/2000/svg" viewBox="0 0 64 64"><title>land-of-red-roses-ico</title><g id="land-of-red-roses-ico"><circle cx="32" cy="34" r="23" style="fill:#e5efef"/><path d="M43.03,17.484c0,4.464-2.666,8.083-5.955,8.083s-5.956-3.619-5.956-8.083S37.075,9.4,37.075,9.4,43.03,13.021,43.03,17.484Z" style="fill:#f53e28;stroke:#4c241d;stroke-linecap:round;stroke-linejoin:round;stroke-width:2px"/><path d="M50.336,25.851a9.6,9.6,0,1,1-18.322-1.423C33.743,19.6,38.513,11.1,50.687,11.1l-.563,2.534a25.448,25.448,0,0,0-.157,10.277Z" style="fill:#f53e28;stroke:#4c241d;stroke-linecap:round;stroke-linejoin:round;stroke-width:2px"/><line x1="10" y1="5" x2="10" y2="7" style="fill:none;stroke:#4c241d;stroke-linecap:round;stroke-linejoin:round;stroke-width:2px"/><line x1="10" y1="11" x2="10" y2="13" style="fill:none;stroke:#4c241d;stroke-linecap:round;stroke-linejoin:round;stroke-width:2px"/><line x1="6" y1="9" x2="8" y2="9" style="fill:none;stroke:#4c241d;stroke-linecap:round;stroke-linejoin:round;stroke-width:2px"/><line x1="12" y1="9" x2="14" y2="9" style="fill:none;stroke:#4c241d;stroke-linecap:round;stroke-linejoin:round;stroke-width:2px"/><circle cx="56.5" cy="40.5" r="2.5" style="fill:none;stroke:#4c241d;stroke-linecap:round;stroke-linejoin:round;stroke-width:2px"/><path d="M10.651,22.1a1.069,1.069,0,1,1-1.069-1.069A1.069,1.069,0,0,1,10.651,22.1Z" style="fill:#4c241d"/><path d="M55.651,55.1a1.069,1.069,0,1,1-1.069-1.069A1.069,1.069,0,0,1,55.651,55.1Z" style="fill:#4c241d"/><path d="M24.664,25.851A9.667,9.667,0,0,0,38.593,36.386a9.725,9.725,0,0,0,4.393-11.958C41.257,19.6,36.487,11.1,24.313,11.1l.563,2.534a25.448,25.448,0,0,1,.157,10.277Z" style="fill:#f53e28;stroke:#4c241d;stroke-linecap:round;stroke-linejoin:round;stroke-width:2px"/><line x1="37.075" y1="38.328" x2="37.075" y2="59.598" style="fill:#f53e28;stroke:#4c241d;stroke-linecap:round;stroke-linejoin:round;stroke-width:2px"/><path d="M45.285,51.644C43,53.932,37.35,54.218,37.35,54.218s.286-5.647,2.574-7.936,7.935-2.573,7.935-2.573S47.574,49.356,45.285,51.644Z" style="fill:#77a052;stroke:#4c241d;stroke-linecap:round;stroke-linejoin:round;stroke-width:2px"/><path d="M16.013,35.73c0,2.432-1.453,4.4-3.245,4.4s-3.244-1.971-3.244-4.4,3.244-4.4,3.244-4.4S16.013,33.3,16.013,35.73Z" style="fill:#f53e28;stroke:#4c241d;stroke-linecap:round;stroke-linejoin:round;stroke-width:2px"/><path d="M19.993,41.288A5.267,5.267,0,0,1,12.4,47.027a5.3,5.3,0,0,1-2.393-6.514,10.313,10.313,0,0,1,10.174-7.26l-.307,1.381a13.876,13.876,0,0,0-.086,5.6Z" style="fill:#f53e28;stroke:#4c241d;stroke-linecap:round;stroke-linejoin:round;stroke-width:2px"/><path d="M6.007,41.288A5.267,5.267,0,0,0,13.6,47.027a5.3,5.3,0,0,0,2.393-6.514,10.313,10.313,0,0,0-10.174-7.26l.307,1.381a13.876,13.876,0,0,1,.086,5.6Z" style="fill:#f53e28;stroke:#4c241d;stroke-linecap:round;stroke-linejoin:round;stroke-width:2px"/><line x1="13" y1="48" x2="13" y2="60" style="fill:#f53e28;stroke:#4c241d;stroke-linecap:round;stroke-linejoin:round;stroke-width:2px"/><path d="M13,55.936a6.7,6.7,0,0,1,1.32-3.517c1.247-1.246,4.324-1.4,4.324-1.4s-.156,3.077-1.4,4.324C16.178,56.4,13.781,56.674,13.1,56.73" style="fill:#77a052;stroke:#4c241d;stroke-linecap:round;stroke-linejoin:round;stroke-width:2px"/><path d="M32.1,33.691A6,6,0,0,1,28,28" style="fill:none;stroke:#4c241d;stroke-linecap:round;stroke-linejoin:round;stroke-width:2px"/></g></svg>