<svg xmlns="http://www.w3.org/2000/svg" viewBox="0 0 64 64"><defs><style>.cls-1{fill:#ffe9c7;}.cls-2{fill:#4c241d;}.cls-3{fill:none;}.cls-3,.cls-4,.cls-5,.cls-6,.cls-7{stroke:#4c241d;stroke-linecap:round;stroke-linejoin:round;stroke-width:2px;}.cls-4{fill:#ffce56;}.cls-5{fill:#f4aeab;}.cls-6{fill:#bf7e68;}.cls-7{fill:#6b4f5b;}</style></defs><g id="icecream"><circle class="cls-1" cx="34.5" cy="33.5" r="21.5"/><circle class="cls-2" cx="12.93" cy="44.4" r="1.07"/><circle class="cls-2" cx="44.93" cy="32.4" r="1.07"/><line class="cls-3" x1="50.55" y1="19.05" x2="53.55" y2="22.05"/><line class="cls-3" x1="53.55" y1="19.05" x2="50.55" y2="22.05"/><circle class="cls-3" cx="49" cy="44" r="2"/><path class="cls-4" d="M25.06,60.39,15,29H40L29.94,60.39A2.56,2.56,0,0,1,25.06,60.39Z"/><path class="cls-5" d="M40,23H38.16a12.5,12.5,0,1,0-21.32,0H15a3,3,0,0,0,0,6H32v1a2,2,0,0,0,4,0V29h4a3,3,0,0,0,0-6Z"/><path class="cls-6" d="M27.5,4A12.47,12.47,0,0,0,15.28,19.1,7.94,7.94,0,0,0,20,17v5a3,3,0,0,0,6,0V17s6,4,7-2a7.69,7.69,0,0,0,7,1.86c0-.12,0-.24,0-.36A12.5,12.5,0,0,0,27.5,4Z"/><line class="cls-3" x1="22" y1="35" x2="29" y2="41"/><line class="cls-3" x1="22" y1="39" x2="27.05" y2="43.33"/><line class="cls-3" x1="28" y1="36" x2="23" y2="44"/><line class="cls-3" x1="12" y1="63" x2="43" y2="63"/><line class="cls-3" x1="47" y1="63" x2="51" y2="63"/><polygon class="cls-7" points="34 63 21 63 23 58 32 58 34 63"/></g></svg>