<svg xmlns="http://www.w3.org/2000/svg" viewBox="0 0 64 64"><title>scroll</title><g id="scroll"><circle cx="37.5" cy="23.5" r="21.5" style="fill:#e5efef"/><polygon points="13 16 13 49 18.6 49 21 46 21 49 53 49 53 16 13 16" style="fill:#ffded5;stroke:#4c241d;stroke-linecap:round;stroke-linejoin:round;stroke-width:2px"/><circle cx="33.044" cy="10.014" r="1.069" style="fill:#4c241d"/><circle cx="20.044" cy="56.014" r="1.069" style="fill:#4c241d"/><line x1="43" y1="7" x2="46" y2="10" style="fill:none;stroke:#4c241d;stroke-linecap:round;stroke-linejoin:round;stroke-width:2px"/><line x1="46" y1="7" x2="43" y2="10" style="fill:none;stroke:#4c241d;stroke-linecap:round;stroke-linejoin:round;stroke-width:2px"/><polygon points="33 22 24.34 37 41.66 37 33 22" style="fill:#ffce56;stroke:#4c241d;stroke-linecap:round;stroke-linejoin:round;stroke-width:2px"/><polygon points="33 42 24.34 27 41.66 27 33 42" style="fill:#ffce56;stroke:#4c241d;stroke-linecap:round;stroke-linejoin:round;stroke-width:2px"/><line x1="30.042" y1="27.123" x2="27.304" y2="31.866" style="fill:none;stroke:#4c241d;stroke-linecap:round;stroke-linejoin:round;stroke-width:2px"/><line x1="38.696" y1="31.866" x2="35.958" y2="27.123" style="fill:none;stroke:#4c241d;stroke-linecap:round;stroke-linejoin:round;stroke-width:2px"/><line x1="30.448" y1="37" x2="35.491" y2="37" style="fill:none;stroke:#4c241d;stroke-linecap:round;stroke-linejoin:round;stroke-width:2px"/><rect x="7" y="12" width="6" height="41" style="fill:#ffe8dc;stroke:#4c241d;stroke-linecap:round;stroke-linejoin:round;stroke-width:2px"/><path d="M10,5h0a2,2,0,0,1,2,2v5a0,0,0,0,1,0,0H8a0,0,0,0,1,0,0V7A2,2,0,0,1,10,5Z" style="fill:#bf7e68;stroke:#4c241d;stroke-linecap:round;stroke-linejoin:round;stroke-width:2px"/><path d="M8,53h4a0,0,0,0,1,0,0v5a2,2,0,0,1-2,2h0a2,2,0,0,1-2-2V53A0,0,0,0,1,8,53Z" style="fill:#bf7e68;stroke:#4c241d;stroke-linecap:round;stroke-linejoin:round;stroke-width:2px"/><rect x="53" y="12" width="6" height="41" style="fill:#ffe8dc;stroke:#4c241d;stroke-linecap:round;stroke-linejoin:round;stroke-width:2px"/><path d="M56,5h0a2,2,0,0,1,2,2v5a0,0,0,0,1,0,0H54a0,0,0,0,1,0,0V7A2,2,0,0,1,56,5Z" style="fill:#bf7e68;stroke:#4c241d;stroke-linecap:round;stroke-linejoin:round;stroke-width:2px"/><path d="M54,53h4a0,0,0,0,1,0,0v5a2,2,0,0,1-2,2h0a2,2,0,0,1-2-2V53a0,0,0,0,1,0,0Z" style="fill:#bf7e68;stroke:#4c241d;stroke-linecap:round;stroke-linejoin:round;stroke-width:2px"/><line x1="53" y1="23" x2="55" y2="23" style="fill:none;stroke:#4c241d;stroke-linecap:round;stroke-linejoin:round;stroke-width:2px"/><line x1="56" y1="43" x2="59" y2="43" style="fill:none;stroke:#4c241d;stroke-linecap:round;stroke-linejoin:round;stroke-width:2px"/><line x1="10" y1="34" x2="13" y2="34" style="fill:none;stroke:#4c241d;stroke-linecap:round;stroke-linejoin:round;stroke-width:2px"/><line x1="7" y1="43" x2="9" y2="43" style="fill:none;stroke:#4c241d;stroke-linecap:round;stroke-linejoin:round;stroke-width:2px"/><line x1="17" y1="20" x2="27" y2="20" style="fill:none;stroke:#4c241d;stroke-linecap:round;stroke-linejoin:round;stroke-width:2px"/><line x1="17" y1="23" x2="22" y2="23" style="fill:none;stroke:#4c241d;stroke-linecap:round;stroke-linejoin:round;stroke-width:2px"/><line x1="40" y1="41" x2="47" y2="41" style="fill:none;stroke:#4c241d;stroke-linecap:round;stroke-linejoin:round;stroke-width:2px"/><line x1="40" y1="44" x2="43" y2="44" style="fill:none;stroke:#4c241d;stroke-linecap:round;stroke-linejoin:round;stroke-width:2px"/><line x1="46" y1="44" x2="50" y2="44" style="fill:none;stroke:#4c241d;stroke-linecap:round;stroke-linejoin:round;stroke-width:2px"/></g></svg>