<svg xmlns="http://www.w3.org/2000/svg" viewBox="0 0 64 64"><title>boots</title><g id="boots"><circle cx="35.5" cy="30.5" r="21.5" style="fill:#eaeaea"/><circle cx="47" cy="17" r="2" style="fill:none;stroke:#4c241d;stroke-linecap:round;stroke-linejoin:round;stroke-width:2px"/><line x1="57.129" y1="32" x2="54.181" y2="34.948" style="fill:none;stroke:#4c241d;stroke-linecap:round;stroke-linejoin:round;stroke-width:2px"/><line x1="54.181" y1="32" x2="57.129" y2="34.948" style="fill:none;stroke:#4c241d;stroke-linecap:round;stroke-linejoin:round;stroke-width:2px"/><circle cx="46" cy="29" r="1" style="fill:#4c241d"/><path d="M14,54l-.292,5h11.15V56.535l4.154,1.481A22.927,22.927,0,0,0,35.3,59.309c5.022.309,14.115-.226,18.7-3.309V52.178L15,52Z" style="fill:#6b4f5b;stroke:#4c241d;stroke-linecap:round;stroke-linejoin:round;stroke-width:2px"/><path d="M24.858,53.535l4.154,1.481A22.927,22.927,0,0,0,35.3,56.309c5.022.309,14.115-.226,18.7-3.309V48.249a2.359,2.359,0,0,0-2.246-2.356L37.149,44.1a2.867,2.867,0,0,1-2.667-2.246A83.324,83.324,0,0,1,35,9H11l4.653,27.059a12.633,12.633,0,0,1,.086,3.9L14,54Z" style="fill:#ffce56;stroke:#4c241d;stroke-linecap:round;stroke-linejoin:round;stroke-width:2px"/><circle cx="28" cy="23" r="2" style="fill:#e66353;stroke:#4c241d;stroke-linecap:round;stroke-linejoin:round;stroke-width:2px"/><circle cx="26" cy="16" r="2" style="fill:#e66353;stroke:#4c241d;stroke-linecap:round;stroke-linejoin:round;stroke-width:2px"/><circle cx="18" cy="18" r="2" style="fill:#e66353;stroke:#4c241d;stroke-linecap:round;stroke-linejoin:round;stroke-width:2px"/><circle cx="20" cy="26" r="2" style="fill:#e66353;stroke:#4c241d;stroke-linecap:round;stroke-linejoin:round;stroke-width:2px"/><circle cx="28" cy="31" r="2" style="fill:#e66353;stroke:#4c241d;stroke-linecap:round;stroke-linejoin:round;stroke-width:2px"/><circle cx="21" cy="34" r="2" style="fill:#e66353;stroke:#4c241d;stroke-linecap:round;stroke-linejoin:round;stroke-width:2px"/><circle cx="22" cy="42" r="2" style="fill:#e66353;stroke:#4c241d;stroke-linecap:round;stroke-linejoin:round;stroke-width:2px"/><circle cx="21" cy="49" r="2" style="fill:#e66353;stroke:#4c241d;stroke-linecap:round;stroke-linejoin:round;stroke-width:2px"/><circle cx="29" cy="39" r="2" style="fill:#e66353;stroke:#4c241d;stroke-linecap:round;stroke-linejoin:round;stroke-width:2px"/><circle cx="38" cy="50" r="2" style="fill:#e66353;stroke:#4c241d;stroke-linecap:round;stroke-linejoin:round;stroke-width:2px"/><circle cx="47" cy="50" r="2" style="fill:#e66353;stroke:#4c241d;stroke-linecap:round;stroke-linejoin:round;stroke-width:2px"/><circle cx="30" cy="46" r="2" style="fill:#e66353;stroke:#4c241d;stroke-linecap:round;stroke-linejoin:round;stroke-width:2px"/><path d="M35,9C35,7.9,28.851,7,22.5,7S11,7.9,11,9s5.149,2,11.5,2S35,10.105,35,9Z" style="fill:#e66353;stroke:#4c241d;stroke-linecap:round;stroke-linejoin:round;stroke-width:2px"/><line x1="3" y1="56" x2="13" y2="56" style="fill:none;stroke:#4c241d;stroke-linecap:round;stroke-linejoin:round;stroke-width:2px"/><line x1="54" y1="56" x2="61" y2="56" style="fill:none;stroke:#4c241d;stroke-linecap:round;stroke-linejoin:round;stroke-width:2px"/></g></svg>