<svg xmlns="http://www.w3.org/2000/svg" viewBox="0 0 64 64"><defs><style>.cls-1{fill:#ffe9c7;}.cls-2{fill:#4c241d;}.cls-3{fill:none;}.cls-3,.cls-4,.cls-5{stroke:#4c241d;stroke-linecap:round;stroke-linejoin:round;stroke-width:2px;}.cls-4{fill:#6b4f5b;}.cls-5{fill:#fc8c29;}</style></defs><g id="guitar"><circle class="cls-1" cx="31.5" cy="37.5" r="21.5"/><circle class="cls-2" cx="4.93" cy="36.4" r="1.07"/><line class="cls-3" x1="12" y1="20" x2="12" y2="24"/><line class="cls-3" x1="10" y1="22" x2="14" y2="22"/><circle class="cls-2" cx="54.93" cy="47.4" r="1.07"/><line class="cls-3" x1="47.55" y1="33.05" x2="50.55" y2="36.05"/><line class="cls-3" x1="50.55" y1="33.05" x2="47.55" y2="36.05"/><ellipse class="cls-4" cx="47.5" cy="16" rx="2.5" ry="2"/><path class="cls-5" d="M34.64,41.74A8.9,8.9,0,0,0,36,37a9,9,0,0,0-18,0,8.9,8.9,0,0,0,1.36,4.74,12,12,0,1,0,15.28,0Z"/><line class="cls-3" x1="23" y1="7" x2="31" y2="7"/><line class="cls-3" x1="22" y1="4" x2="32" y2="4"/><rect class="cls-5" x="25" y="10" width="4" height="24"/><polygon class="cls-5" points="29 10 25 10 24 1 30 1 29 10"/><circle class="cls-4" cx="27" cy="36" r="4"/><line class="cls-3" x1="24" y1="53" x2="30" y2="53"/><path class="cls-3" d="M50,16V6s4,2,3,4"/><line class="cls-3" x1="40" y1="18" x2="42.63" y2="18"/><line class="cls-3" x1="52.93" y1="14" x2="60" y2="14"/><line class="cls-3" x1="52.93" y1="18" x2="60" y2="18"/><line class="cls-3" x1="40" y1="14" x2="42.63" y2="14"/><line class="cls-3" x1="56.33" y1="10" x2="60" y2="10"/><line class="cls-3" x1="40" y1="10" x2="47" y2="10"/><line class="cls-3" x1="55.24" y1="6" x2="60" y2="6"/><line class="cls-3" x1="40" y1="6" x2="47" y2="6"/></g></svg>