<svg xmlns="http://www.w3.org/2000/svg" viewBox="0 0 64 64"><title>pray</title><g id="pray"><circle cx="23.5" cy="28.5" r="21.5" style="fill:#e5efef"/><line x1="59" y1="54" x2="59" y2="56" style="fill:none;stroke:#4c241d;stroke-linecap:round;stroke-linejoin:round;stroke-width:2px"/><line x1="59" y1="60" x2="59" y2="62" style="fill:none;stroke:#4c241d;stroke-linecap:round;stroke-linejoin:round;stroke-width:2px"/><line x1="55" y1="58" x2="57" y2="58" style="fill:none;stroke:#4c241d;stroke-linecap:round;stroke-linejoin:round;stroke-width:2px"/><line x1="61" y1="58" x2="63" y2="58" style="fill:none;stroke:#4c241d;stroke-linecap:round;stroke-linejoin:round;stroke-width:2px"/><circle cx="62.069" cy="20.886" r="1.069" style="fill:#4c241d"/><circle cx="4.069" cy="22.886" r="1.069" style="fill:#4c241d"/><path d="M57,20.673V48.889A4.11,4.11,0,0,1,52.889,53H13.111A4.11,4.11,0,0,1,9,48.889V14H57" style="fill:#fff;stroke:#4c241d;stroke-linecap:round;stroke-linejoin:round;stroke-width:2px"/><path d="M12.264,7H53.736A3.264,3.264,0,0,1,57,10.264V16a0,0,0,0,1,0,0H9a0,0,0,0,1,0,0V10.264A3.264,3.264,0,0,1,12.264,7Z" style="fill:#bd53b5;stroke:#4c241d;stroke-linecap:round;stroke-linejoin:round;stroke-width:2px"/><rect x="21" y="2" width="5" height="9" rx="2.5" ry="2.5" style="fill:#b5a19c;stroke:#4c241d;stroke-linecap:round;stroke-linejoin:round;stroke-width:2px"/><rect x="40" y="2" width="5" height="9" rx="2.5" ry="2.5" style="fill:#b5a19c;stroke:#4c241d;stroke-linecap:round;stroke-linejoin:round;stroke-width:2px"/><path d="M38.173,39.211l-.79-11.059a2.025,2.025,0,0,1,2.021-2.17h0a2.025,2.025,0,0,1,1.971,1.562l2.63,11.175a23.954,23.954,0,0,1,1.054,6.024v3.44c0,1.045.185,2.759.978,3.439l5.365,4.6L42.9,60l-2.3-3.141a19.532,19.532,0,0,1-3.586-8.791l-1.014-7.095a1.559,1.559,0,0,1,1.052-1.7h0a1.56,1.56,0,0,1,2.007,1.1L40.536,46.3" style="fill:#ffe8dc;stroke:#4c241d;stroke-linecap:round;stroke-linejoin:round;stroke-width:2px"/><path d="M27.559,39.211l.789-11.059a2.025,2.025,0,0,0-2.02-2.17h0a2.027,2.027,0,0,0-1.972,1.562L21.727,38.719a29.46,29.46,0,0,0-.783,6.745v3.441a3.581,3.581,0,0,1-1.25,2.717l-5.365,4.6,8.5,3.78,2.3-3.141a19.532,19.532,0,0,0,3.586-8.791l1.014-7.095a1.56,1.56,0,0,0-1.052-1.7h0a1.561,1.561,0,0,0-2.008,1.1L25.2,46.3" style="fill:#ffe8dc;stroke:#4c241d;stroke-linecap:round;stroke-linejoin:round;stroke-width:2px"/><line x1="33" y1="24" x2="33" y2="19" style="fill:none;stroke:#ffce56;stroke-linecap:round;stroke-linejoin:round;stroke-width:2px"/><line x1="36.653" y1="23.46" x2="39.441" y2="20.673" style="fill:none;stroke:#ffce56;stroke-linecap:round;stroke-linejoin:round;stroke-width:2px"/><line x1="28.963" y1="23.46" x2="26.176" y2="20.673" style="fill:none;stroke:#ffce56;stroke-linecap:round;stroke-linejoin:round;stroke-width:2px"/></g></svg>