<svg xmlns="http://www.w3.org/2000/svg" viewBox="0 0 64 64"><title>no-shopping</title><g id="no-shopping"><circle cx="39.5" cy="32.5" r="21.5" style="fill:#e5efef"/><circle cx="48.545" cy="22.494" r="1.132" style="fill:#4c241d"/><circle cx="11.545" cy="24.494" r="1.132" style="fill:#4c241d"/><polyline points="38 25 38 33 48 33 47 30 47 26 44 22 38 25" style="fill:#0faa00;stroke:#4c241d;stroke-linecap:round;stroke-linejoin:round;stroke-width:2px"/><circle cx="32.545" cy="12.494" r="1.132" style="fill:#4c241d"/><polygon points="52 34 12 34 15.902 48 48.098 48 52 34" style="fill:#b5a19c;stroke:#4c241d;stroke-linecap:round;stroke-linejoin:round;stroke-width:2px"/><rect x="10" y="30" width="44" height="4" rx="2" ry="2" style="fill:#6b4f5b;stroke:#4c241d;stroke-linecap:round;stroke-linejoin:round;stroke-width:2px"/><path d="M19.8,20H30.2A2.8,2.8,0,0,1,33,22.8V30a0,0,0,0,1,0,0H17a0,0,0,0,1,0,0V22.8A2.8,2.8,0,0,1,19.8,20Z" style="fill:#fc8c29;stroke:#4c241d;stroke-linecap:round;stroke-linejoin:round;stroke-width:2px"/><path d="M35.5,15h0A2.5,2.5,0,0,1,38,17.5V30a0,0,0,0,1,0,0H33a0,0,0,0,1,0,0V17.5A2.5,2.5,0,0,1,35.5,15Z" style="fill:#ffce56;stroke:#4c241d;stroke-linecap:round;stroke-linejoin:round;stroke-width:2px"/><line x1="10.518" y1="12.518" x2="51.481" y2="53.481" style="fill:none;stroke:#f53e28;stroke-linejoin:round;stroke-width:2px"/><circle cx="32" cy="32" r="29" style="fill:none;stroke:#f53e28;stroke-linecap:round;stroke-linejoin:round;stroke-width:2px"/><line x1="58.951" y1="56" x2="56.003" y2="58.948" style="fill:none;stroke:#4c241d;stroke-linecap:round;stroke-linejoin:round;stroke-width:2px"/><line x1="58.951" y1="58.948" x2="56.003" y2="56" style="fill:none;stroke:#4c241d;stroke-linecap:round;stroke-linejoin:round;stroke-width:2px"/></g></svg>