<svg xmlns="http://www.w3.org/2000/svg" viewBox="0 0 64 64"><defs><style>.cls-1{fill:#ffe9c7;}.cls-2{fill:#4c241d;}.cls-3{fill:none;}.cls-3,.cls-4,.cls-5,.cls-6,.cls-7,.cls-8{stroke:#4c241d;stroke-linecap:round;stroke-linejoin:round;stroke-width:2px;}.cls-4{fill:#a9ba5a;}.cls-5{fill:#9dc1e4;}.cls-6{fill:#ffce56;}.cls-7{fill:#e66353;}.cls-8{fill:#fff;}</style></defs><g id="mask2"><circle class="cls-1" cx="28.5" cy="29.5" r="21.5"/><circle class="cls-2" cx="16.93" cy="30.4" r="1.07"/><circle class="cls-2" cx="34.93" cy="13.4" r="1.07"/><line class="cls-3" x1="45.55" y1="27.05" x2="48.55" y2="30.05"/><line class="cls-3" x1="48.55" y1="27.05" x2="45.55" y2="30.05"/><circle class="cls-3" cx="40" cy="6" r="2"/><path class="cls-4" d="M31.14,32s-5-15-17-10-11-12,1-10S33.14,25,31.14,32Z"/><path class="cls-4" d="M33,32s5-15,17-10,11-12-1-10S31,25,33,32Z"/><path class="cls-5" d="M39,33.5C39,31,35.87,29,32,29s-7,2-7,4.5S32,44,32,44,39,36,39,33.5Z"/><path class="cls-6" d="M35,35a3,3,0,0,0-6,0c0,1.66,3,7,3,7S35,36.66,35,35Z"/><path class="cls-7" d="M32.87,41.87c10.65-10.26,28-6,28-6C61.84,39.3,57,40,57,40,55.06,60.52,37.68,58,37.68,58l-4.81-4.42H31L26.19,58S8.94,60.52,7,40c0,0-5-.7-4-4.12,0,0,17.35-4.27,28,6Z"/><path class="cls-8" d="M36,50s5-8,14-8C50,42,51,55,36,50Z"/><path class="cls-8" d="M28,50s-5-8-14-8C14,42,13,55,28,50Z"/><line class="cls-3" x1="7" y1="40" x2="9" y2="40"/><line class="cls-3" x1="57" y1="40" x2="55" y2="40"/><circle class="cls-2" cx="29.93" cy="45.4" r="1.07"/><circle class="cls-2" cx="33.93" cy="45.4" r="1.07"/><circle class="cls-2" cx="37.93" cy="42.4" r="1.07"/><circle class="cls-2" cx="25.93" cy="42.4" r="1.07"/><circle class="cls-2" cx="21.93" cy="40.4" r="1.07"/><circle class="cls-2" cx="41.93" cy="40.4" r="1.07"/></g></svg>