<svg xmlns="http://www.w3.org/2000/svg" viewBox="0 0 64 64"><title>heart</title><g id="heart"><circle cx="25.5" cy="23.5" r="21.5" style="fill:#eaeaea"/><path d="M34,61.746S60.762,39.288,60.762,25.818C60.762,18.186,54.106,12,45.894,12A15.185,15.185,0,0,0,34,17.6,15.186,15.186,0,0,0,22.105,12C13.894,12,7.238,18.186,7.238,25.818,7.238,39.288,34,61.746,34,61.746Z" style="fill:#fff;stroke:#4c241d;stroke-linecap:round;stroke-linejoin:round;stroke-width:2px"/><circle cx="40" cy="8" r="1" style="fill:#4c241d"/><circle cx="24" cy="3" r="1" style="fill:#4c241d"/><line x1="11.129" y1="7" x2="8.181" y2="9.948" style="fill:none;stroke:#4c241d;stroke-linecap:round;stroke-linejoin:round;stroke-width:2px"/><line x1="8.181" y1="7" x2="11.129" y2="9.948" style="fill:none;stroke:#4c241d;stroke-linecap:round;stroke-linejoin:round;stroke-width:2px"/><ellipse cx="34" cy="60.5" rx="10" ry="3.333" style="fill:#4c241d"/><path d="M60.038,30H39V13.606a14.841,14.841,0,0,0-5,4,14.841,14.841,0,0,0-5-4V30H7.962a37.643,37.643,0,0,0,5.4,10H29V57.265c2.954,2.763,5,4.481,5,4.481s2.046-1.718,5-4.481V40H54.639A37.643,37.643,0,0,0,60.038,30Z" style="fill:#e66353;stroke:#4c241d;stroke-linecap:round;stroke-linejoin:round;stroke-width:2px"/><line x1="39" y1="35" x2="39" y2="29" style="fill:none;stroke:#4c241d;stroke-linecap:round;stroke-linejoin:round;stroke-width:2px"/></g></svg>