<svg xmlns="http://www.w3.org/2000/svg" viewBox="0 0 64 64"><title>beer</title><g id="beer"><circle cx="37.5" cy="28.5" r="21.5" style="fill:#eaeaea"/><circle cx="13" cy="7" r="2" style="fill:none;stroke:#4c241d;stroke-linecap:round;stroke-linejoin:round;stroke-width:2px"/><path d="M26.632,5.5A1.132,1.132,0,1,1,25.5,4.368,1.132,1.132,0,0,1,26.632,5.5Z" style="fill:#4c241d"/><rect x="12" y="28" width="32" height="16" style="fill:#bf7e68;stroke:#4c241d;stroke-linecap:round;stroke-linejoin:round;stroke-width:2px"/><rect x="12" y="24" width="32" height="4" style="fill:#bf7e68;stroke:#4c241d;stroke-linecap:round;stroke-linejoin:round;stroke-width:2px"/><path d="M16,38h0a4,4,0,0,1,4,4V61a0,0,0,0,1,0,0H16.489A4.489,4.489,0,0,1,12,56.511V42A4,4,0,0,1,16,38Z" style="fill:#bf7e68;stroke:#4c241d;stroke-linecap:round;stroke-linejoin:round;stroke-width:2px"/><path d="M24,38h0a4,4,0,0,1,4,4V61a0,0,0,0,1,0,0H20a0,0,0,0,1,0,0V42A4,4,0,0,1,24,38Z" style="fill:#bf7e68;stroke:#4c241d;stroke-linecap:round;stroke-linejoin:round;stroke-width:2px"/><path d="M32,38h0a4,4,0,0,1,4,4V61a0,0,0,0,1,0,0H28a0,0,0,0,1,0,0V42A4,4,0,0,1,32,38Z" style="fill:#bf7e68;stroke:#4c241d;stroke-linecap:round;stroke-linejoin:round;stroke-width:2px"/><path d="M40,38h0a4,4,0,0,1,4,4V56.511A4.489,4.489,0,0,1,39.511,61H36a0,0,0,0,1,0,0V42A4,4,0,0,1,40,38Z" style="fill:#bf7e68;stroke:#4c241d;stroke-linecap:round;stroke-linejoin:round;stroke-width:2px"/><line x1="32" y1="45" x2="32" y2="53" style="fill:none;stroke:#4c241d;stroke-linecap:round;stroke-linejoin:round;stroke-width:2px"/><line x1="24" y1="42" x2="24" y2="48" style="fill:none;stroke:#4c241d;stroke-linecap:round;stroke-linejoin:round;stroke-width:2px"/><line x1="24" y1="53" x2="24" y2="54" style="fill:none;stroke:#4c241d;stroke-linecap:round;stroke-linejoin:round;stroke-width:2px"/><line x1="40" y1="56" x2="40" y2="48" style="fill:none;stroke:#4c241d;stroke-linecap:round;stroke-linejoin:round;stroke-width:2px"/><line x1="40" y1="45" x2="40" y2="44" style="fill:none;stroke:#4c241d;stroke-linecap:round;stroke-linejoin:round;stroke-width:2px"/><line x1="17" y1="49" x2="17" y2="48" style="fill:none;stroke:#4c241d;stroke-linecap:round;stroke-linejoin:round;stroke-width:2px"/><line x1="15" y1="57" x2="15" y2="54" style="fill:none;stroke:#4c241d;stroke-linecap:round;stroke-linejoin:round;stroke-width:2px"/><path d="M44.358,19.161a3.989,3.989,0,1,0-6.794-4.178A6.968,6.968,0,0,0,28.919,16.2a4.979,4.979,0,0,0-9.592-.928,3.462,3.462,0,0,0-2.7,2.135,3.582,3.582,0,0,0-2.324-.854,3.44,3.44,0,0,0-3.444,2.792A2.2,2.2,0,0,0,10.1,19.2,2.047,2.047,0,0,0,8,21.192,2.808,2.808,0,0,0,10.808,24H20v2.5a1.5,1.5,0,0,0,3,0V24h8v5a3,3,0,0,0,6,0V24h6.5a2.495,2.495,0,0,0,.858-4.839Z" style="fill:#ffce56;stroke:#4c241d;stroke-linecap:round;stroke-linejoin:round;stroke-width:2px"/><path d="M47.6,45H44V41h3.6A3.407,3.407,0,0,0,51,37.6V32H44V28h9a2,2,0,0,1,2,2v7.6A7.411,7.411,0,0,1,47.6,45Z" style="fill:#bf7e68;stroke:#4c241d;stroke-linecap:round;stroke-linejoin:round;stroke-width:2px"/><line x1="28" y1="61" x2="55" y2="61" style="fill:none;stroke:#4c241d;stroke-linecap:round;stroke-linejoin:round;stroke-width:2px"/><circle cx="35" cy="19" r="2" style="fill:none;stroke:#4c241d;stroke-linecap:round;stroke-linejoin:round;stroke-width:2px"/><circle cx="35" cy="7" r="2" style="fill:none;stroke:#4c241d;stroke-linecap:round;stroke-linejoin:round;stroke-width:2px"/><path d="M24.632,19.5A1.132,1.132,0,1,1,23.5,18.368,1.132,1.132,0,0,1,24.632,19.5Z" style="fill:#4c241d"/><path d="M46.632,4.5A1.132,1.132,0,1,1,45.5,3.368,1.132,1.132,0,0,1,46.632,4.5Z" style="fill:#4c241d"/></g></svg>