<svg xmlns="http://www.w3.org/2000/svg" viewBox="0 0 64 64"><defs><style>.cls-1{fill:#ffe9c7;}.cls-2{fill:none;}.cls-2,.cls-4,.cls-5,.cls-6{stroke:#4c241d;stroke-linecap:round;stroke-linejoin:round;stroke-width:2px;}.cls-3{fill:#4c241d;}.cls-4{fill:#bd53b5;}.cls-5{fill:#ffce56;}.cls-6{fill:#bf7e68;}</style></defs><g id="coconut-drink"><circle class="cls-1" cx="36.5" cy="27.5" r="21.5"/><circle class="cls-2" cx="57" cy="29" r="2"/><line class="cls-2" x1="15.84" y1="26.66" x2="12.16" y2="30.34"/><line class="cls-2" x1="12.16" y1="26.66" x2="15.84" y2="30.34"/><circle class="cls-3" cx="18" cy="20" r="1"/><line class="cls-2" x1="36" y1="37" x2="45" y2="7"/><polygon class="cls-4" points="32.23 15.99 51.5 21.13 43.79 10.86 32.23 15.99"/><path class="cls-5" d="M30.16,40,33,39.39,25.32,6.2A1.46,1.46,0,0,0,23.9,5H19V8h3.72Z"/><path class="cls-6" d="M17.43,35a18,18,0,1,0,31.14,0Z"/><line class="cls-2" x1="17" y1="62" x2="44" y2="62"/><line class="cls-2" x1="48" y1="62" x2="57" y2="62"/><path class="cls-2" d="M39.22,57.65A15.06,15.06,0,0,0,46.27,51"/><circle class="cls-3" cx="24" cy="41" r="1"/><circle class="cls-3" cx="26" cy="46" r="1"/><circle class="cls-3" cx="30" cy="57" r="1"/><circle class="cls-3" cx="25" cy="54" r="1"/><circle class="cls-3" cx="21" cy="45" r="1"/><circle class="cls-3" cx="24" cy="49" r="1"/><circle class="cls-3" cx="28" cy="51" r="1"/></g></svg>