<svg id="Layer_1" data-name="Layer 1" xmlns="http://www.w3.org/2000/svg" viewBox="0 0 400 300" width="406" height="306" class="illustration styles_illustrationTablet__1DWOa"><path d="M332.37,200.4c-5.51,12.65-12.42,25-39.12,33.69q-3,1-6.3,1.88c-10.38,2.82-23.33,5.17-39.64,6.9-1.79.19-3.61.37-5.48.55q-4.68.44-9.72.81c-17.26,1.27-37.71,2-62,1.92h-1.52a214.49,214.49,0,0,1-29.64-2c-1.57-.22-3.1-.45-4.61-.71q-3.09-.53-6-1.14c-3.92-.82-7.63-1.77-11.14-2.82l-4.27-1.37a105.17,105.17,0,0,1-10.66-4.28c-.7-.32-1.38-.65-2-1-1.25-.63-2.47-1.27-3.65-1.93A78.17,78.17,0,0,1,80.22,219c-26-24.88-20.26-64.54,5.1-83.81.86-.66,1.74-1.29,2.65-1.89a54.45,54.45,0,0,1,15.89-7.25c.87-.24,1.75-.46,2.65-.67,1.73-.38,3.5-.7,5.31-.93l3.54-.44c6.49-.77,13.18-1.38,20-1.85,17.59-1.22,36-1.5,54-1.19l2.54,0,1,0q6.33.13,12.56.37h.47l3.3.13c20.44.84,39.62,2.32,55.5,3.93,7.72.78,14.66,1.59,20.58,2.37,2.57.34,5,.67,7.13,1,1.65.25,3.24.54,4.78.87.76.17,1.51.35,2.25.55q.57.13,1.14.3l1.22.35,1.33.41c.81.26,1.61.54,2.38.84C337.73,144.2,341.51,179.42,332.37,200.4Z" fill="#e6e6e6" opacity="0.3"></path><path d="M255.3,175.51s28-10.34,29.85-43.86c1.52-28-4.76-48.46-4.76-48.46l-12.69,3s.82,40.25-7.54,51.3S222.69,140,216.47,155.4,215.49,188.88,255.3,175.51Z" fill="#f4a28c"></path><path d="M267.7,86.24s-2.78-4.64-2.48-7.46S267.7,76,267.7,76s-1-4,.64-5.8,10.42-1.34,11,0a21,21,0,0,1,1,13C278.91,90.08,267.7,86.24,267.7,86.24Z" fill="#f4a28c"></path><path d="M196.56,129.48s-1.76,12.82-4.91,15.77h16.7s-5.41-5.37-4.91-16.63Z" fill="#f4a28c"></path><path d="M196.56,129.48s-1.76,12.82-4.91,15.77h16.7s-5.41-5.37-4.91-16.63Z" opacity="0.09"></path><path d="M191.93,119.08s-.59,15.4,7.48,16.36,6.13-16.58,6.13-16.58.44-8.65-4.3-9.5S190.26,108.06,191.93,119.08Z" fill="#f4a28c"></path><path d="M192,122.63s-4.2-1-3.85,1.1-.18,5,4.52,3.46Z" fill="#f4a28c"></path><path d="M205.49,121.56s4.09-1.41,3.94.73.64,5-4.18,3.86Z" fill="#f4a28c"></path><path d="M145.43,175.51s-28-10.34-29.85-43.86c-1.51-28,4.76-48.46,4.76-48.46l12.7,3s-.83,40.25,7.53,51.3,37.48,2.48,43.69,17.86S185.25,188.88,145.43,175.51Z" fill="#f4a28c"></path><path d="M234.5,233.55l-67,.53-11.33-23.43a72.16,72.16,0,0,1-7.42-29.54c0-.79,0-1.58,0-2.36.06-14.26,3.95-32.18,23-32.77l8.44-.3c13-.5,26.75-1.11,38.54-.06,15.44,1.36,27.57,5.53,30.5,16.34C254.86,182.86,234.5,233.55,234.5,233.55Z" fill="#000000"></path><path d="M192,122.63s1.68-2.37,3-8a19.16,19.16,0,0,0,7,.29c1.53-.22,3.67-.61,4.61-1.94a8.79,8.79,0,0,0,1.5-5.71,5.51,5.51,0,0,0-3.52-4.58,4.41,4.41,0,0,1-1.39,3.13A5.7,5.7,0,0,0,199,101a5.26,5.26,0,0,1-1.36,4.28,5.47,5.47,0,0,0-2.09-4,6.14,6.14,0,0,1-1.29,4c-1.13,1.44-2.86,2.31-4,3.72-2.95,3.6-2,9.32-.39,13.25Z" fill="#24285b"></path><path d="M206.45,113.42s2.93,6.1-1,8.14l-1.67-8.14Z" fill="#24285b"></path><path d="M149.69,167.35s7,47,38.48,50.65,56.33-14.27,56.33-14.27l-10,29.83-67.05.52-12.27-25.46S145.4,187.72,149.69,167.35Z" opacity="0.09"></path><polygon points="167.45 234.08 171.66 253.02 230.14 253.02 234.5 233.56 167.45 234.08" fill="#24285b"></polygon><path d="M218.71,145.62v1.14a19.27,19.27,0,1,1-38.54,0v-1.08C193.19,145.18,206.92,144.57,218.71,145.62Z" fill="#f4a28c"></path><path d="M133,86.24s2.77-4.64,2.48-7.46S133,76,133,76s1-4-.65-5.8-10.41-1.34-11,0a21.1,21.1,0,0,0-1,13C121.83,90.08,133,86.24,133,86.24Z" fill="#f4a28c"></path><rect x="85.32" y="72.21" width="233.49" height="5.19" rx="2.59" fill="#24285b"></rect><rect x="92.28" y="46.98" width="22.02" height="55.64" rx="4.95" fill="#ffd200"></rect><rect x="289.83" y="46.98" width="22.02" height="55.64" rx="4.95" fill="#ffd200"></rect><path d="M129.85,73.6a4.64,4.64,0,0,0-4.73,2.25,1.19,1.19,0,0,0-.06,1.22,1.25,1.25,0,0,0,.79.39,17.12,17.12,0,0,0,3.58.25,5.2,5.2,0,0,0-3.27,3.23,2.71,2.71,0,0,0,0,2,2.9,2.9,0,0,0,2.52,1.33c2.57.16,6.72-1.68,6.86-4.7C135.67,76.78,132.38,74,129.85,73.6Z" fill="#f4a28c"></path><path d="M273,73.6a4.63,4.63,0,0,1,4.73,2.25,1.17,1.17,0,0,1,.06,1.22,1.25,1.25,0,0,1-.78.39,17.26,17.26,0,0,1-3.59.25,5.2,5.2,0,0,1,3.27,3.23,2.71,2.71,0,0,1,0,2,2.9,2.9,0,0,1-2.52,1.33c-2.56.16-6.71-1.68-6.86-4.7C267.18,76.78,270.47,74,273,73.6Z" fill="#f4a28c"></path><path d="M88,167.45V133.3c-.91.6-1.79,1.23-2.65,1.89v32.26a9.28,9.28,0,1,0,2.65,0Zm-1.32,16.37a7.2,7.2,0,1,1,7.2-7.2A7.2,7.2,0,0,1,86.65,183.82Z" fill="#e6e6e6"></path><path d="M106.51,148.67V125.38c-.9.21-1.78.43-2.65.67v22.62a9.28,9.28,0,1,0,2.65,0ZM105.19,165a7.2,7.2,0,1,1,7.2-7.2A7.2,7.2,0,0,1,105.19,165Z" fill="#e6e6e6"></path><circle cx="115.62" cy="204.43" r="13.75" opacity="0.3"></circle><circle cx="115.62" cy="204.43" r="2.88" opacity="0.3"></circle><path d="M129.37,237.09a13.78,13.78,0,0,1-1,5.23c-3.92-.82-7.63-1.77-11.14-2.82l-4.27-1.37a105.17,105.17,0,0,1-10.66-4.28,13.74,13.74,0,0,1,27.1,3.24Z" opacity="0.3"></path><path d="M118.5,237.09a2.89,2.89,0,0,1-1.3,2.41l-4.27-1.37a3,3,0,0,1-.19-1,2.88,2.88,0,1,1,5.76,0Z" opacity="0.3"></path><path d="M116.82,187.58l-1.14,3.11-.33.91L106.78,215l-1.18,3.22-1.44,3.94-3.94,10.75c-1.25-.63-2.47-1.27-3.65-1.93l7.18-19.58L111,191.47l1.43-3.89Z" fill="#e6e6e6"></path><path d="M139,244.17c-1.57-.22-3.1-.45-4.61-.71l-7.83-21.34-1.44-3.94L124,215.3l-8.68-23.7-.33-.89-1.15-3.13h4.35l1.35,3.69,7.57,20.65Z" fill="#e6e6e6"></path><rect x="102.13" y="218.18" width="26.99" height="3.94" fill="#e6e6e6"></rect><path d="M309.2,152.72h-1.39l-4.65-21.4-1.33-.41-1.22-.35,4.82,22.16H294.58l4.89-22.46c-.74-.2-1.49-.38-2.25-.55l-5,23h-1.39a5.92,5.92,0,0,0-5.92,5.92V216.2a5.92,5.92,0,0,0,5.92,5.92H309.2a5.92,5.92,0,0,0,5.92-5.92V158.64A5.92,5.92,0,0,0,309.2,152.72Z" fill="#e6e6e6"></path><rect x="187.77" y="113.11" width="20.44" height="3.11" rx="1.35" transform="translate(-5.09 9.28) rotate(-2.65)" fill="#000000"></rect><rect x="177.08" y="175.91" width="45.83" height="27.3" fill="#fff" opacity="0.54"></rect></svg>