<svg xmlns="http://www.w3.org/2000/svg" viewBox="0 0 64 64"><title>food-wine-cheese-bread-ico</title><g id="food-wine-cheese-bread-ico"><circle cx="33" cy="32" r="23" style="fill:#e5efef"/><line x1="7" y1="5" x2="7" y2="7" style="fill:none;stroke:#4c241d;stroke-linecap:round;stroke-linejoin:round;stroke-width:2px"/><line x1="7" y1="11" x2="7" y2="13" style="fill:none;stroke:#4c241d;stroke-linecap:round;stroke-linejoin:round;stroke-width:2px"/><line x1="3" y1="9" x2="5" y2="9" style="fill:none;stroke:#4c241d;stroke-linecap:round;stroke-linejoin:round;stroke-width:2px"/><line x1="9" y1="9" x2="11" y2="9" style="fill:none;stroke:#4c241d;stroke-linecap:round;stroke-linejoin:round;stroke-width:2px"/><circle cx="45.5" cy="10.5" r="2.5" style="fill:none;stroke:#4c241d;stroke-linecap:round;stroke-linejoin:round;stroke-width:2px"/><path d="M20.651,14.1a1.069,1.069,0,1,1-1.069-1.069A1.069,1.069,0,0,1,20.651,14.1Z" style="fill:#4c241d"/><path d="M60.651,16.1a1.069,1.069,0,1,1-1.069-1.069A1.069,1.069,0,0,1,60.651,16.1Z" style="fill:#4c241d"/><path d="M23.3,57.7h0a5.5,5.5,0,0,1,0-7.778L45.925,27.3a5.5,5.5,0,0,1,7.778,0h0a5.5,5.5,0,0,1,0,7.778L31.075,57.7A5.5,5.5,0,0,1,23.3,57.7Z" style="fill:#bf7e68;stroke:#4c241d;stroke-linecap:round;stroke-linejoin:round;stroke-width:2px"/><line x1="14" y1="48" x2="14" y2="59" style="fill:none;stroke:#4c241d;stroke-linecap:round;stroke-linejoin:round;stroke-width:2px"/><line x1="10" y1="60" x2="18" y2="60" style="fill:none;stroke:#4c241d;stroke-linecap:round;stroke-linejoin:round;stroke-width:2px"/><path d="M4.354,34.832c-2.162,6.268,2.084,13.125,8.7,13.556q.359.024.725.024a10.894,10.894,0,0,0,4.127-.8,10.125,10.125,0,0,0,5.717-12.1L21.342,27H6.973Z" style="fill:#fff;stroke:#4c241d;stroke-linecap:round;stroke-linejoin:round;stroke-width:2px"/><path d="M3.861,39.406a10.028,10.028,0,0,0,9.194,8.982q.359.024.725.024a10.894,10.894,0,0,0,4.127-.8,10.125,10.125,0,0,0,5.717-12.1l-.167-.6a32.808,32.808,0,0,0-8.165,3.679C10.2,41.548,6.306,40.712,3.861,39.406Z" style="fill:#f53e28;stroke:#4c241d;stroke-linecap:round;stroke-linejoin:round;stroke-width:2px"/><line x1="42.371" y1="30.851" x2="49" y2="31" style="fill:none;stroke:#4c241d;stroke-linecap:round;stroke-linejoin:round;stroke-width:2px"/><line x1="35.371" y1="37.851" x2="42" y2="38" style="fill:none;stroke:#4c241d;stroke-linecap:round;stroke-linejoin:round;stroke-width:2px"/><line x1="28.371" y1="44.851" x2="34" y2="44.925" style="fill:none;stroke:#4c241d;stroke-linecap:round;stroke-linejoin:round;stroke-width:2px"/><line x1="23.004" y1="50.865" x2="29" y2="51" style="fill:none;stroke:#4c241d;stroke-linecap:round;stroke-linejoin:round;stroke-width:2px"/><rect x="36" y="48" width="21" height="11" style="fill:#d9be6f;stroke:#4c241d;stroke-linecap:round;stroke-linejoin:round;stroke-width:2px"/><path d="M42,42l-6,6h9v5.5a1.5,1.5,0,0,0,3,0v-3a1.5,1.5,0,0,0,3,0V48h6Z" style="fill:#ffce56;stroke:#4c241d;stroke-linecap:round;stroke-linejoin:round;stroke-width:2px"/></g></svg>