<svg xmlns="http://www.w3.org/2000/svg" viewBox="0 0 64 64"><title>no-music</title><g id="no-music"><circle cx="24.207" cy="50.989" r="1.069" style="fill:#4c241d"/><circle cx="40.5" cy="26.5" r="21.5" style="fill:#e5efef"/><ellipse cx="38" cy="51.5" rx="5" ry="3.5" style="fill:#fc8c29;stroke:#4c241d;stroke-linecap:round;stroke-linejoin:round;stroke-width:2px"/><path d="M43,51.5V28s10.853,4.43,6.927,11.215" style="fill:none;stroke:#4c241d;stroke-linecap:round;stroke-linejoin:round;stroke-width:2px"/><ellipse cx="14" cy="39.5" rx="5" ry="3.5" style="fill:#fc8c29;stroke:#4c241d;stroke-linecap:round;stroke-linejoin:round;stroke-width:2px"/><ellipse cx="32" cy="34.5" rx="5" ry="3.5" style="fill:#fc8c29;stroke:#4c241d;stroke-linecap:round;stroke-linejoin:round;stroke-width:2px"/><polyline points="37 34.5 37 11 19 16 19 39.5" style="fill:none;stroke:#4c241d;stroke-linejoin:round;stroke-width:2px"/><line x1="37" y1="17" x2="19" y2="22" style="fill:none;stroke:#4c241d;stroke-linejoin:round;stroke-width:2px"/><line x1="10.518" y1="12.518" x2="51.481" y2="53.481" style="fill:none;stroke:#f53e28;stroke-linejoin:round;stroke-width:2px"/><circle cx="32" cy="32" r="29" style="fill:none;stroke:#f53e28;stroke-linecap:round;stroke-linejoin:round;stroke-width:2px"/><line x1="48.951" y1="18" x2="46.003" y2="20.948" style="fill:none;stroke:#4c241d;stroke-linecap:round;stroke-linejoin:round;stroke-width:2px"/><line x1="48.951" y1="20.948" x2="46.003" y2="18" style="fill:none;stroke:#4c241d;stroke-linecap:round;stroke-linejoin:round;stroke-width:2px"/><line x1="7.951" y1="58" x2="5.003" y2="60.948" style="fill:none;stroke:#4c241d;stroke-linecap:round;stroke-linejoin:round;stroke-width:2px"/><line x1="7.951" y1="60.948" x2="5.003" y2="58" style="fill:none;stroke:#4c241d;stroke-linecap:round;stroke-linejoin:round;stroke-width:2px"/></g></svg>