<svg xmlns="http://www.w3.org/2000/svg" viewBox="0 0 64 64"><title>pound-coin</title><g id="pound-coin"><circle cx="24.5" cy="26.5" r="21.5" style="fill:#eaeaea"/><line x1="6" y1="9.463" x2="6" y2="10.878" style="fill:none;stroke:#4c241d;stroke-linecap:round;stroke-linejoin:round;stroke-width:2px"/><line x1="6" y1="15.122" x2="6" y2="16.537" style="fill:none;stroke:#4c241d;stroke-linecap:round;stroke-linejoin:round;stroke-width:2px"/><line x1="2.463" y1="13" x2="3.878" y2="13" style="fill:none;stroke:#4c241d;stroke-linecap:round;stroke-linejoin:round;stroke-width:2px"/><line x1="8.122" y1="13" x2="9.537" y2="13" style="fill:none;stroke:#4c241d;stroke-linecap:round;stroke-linejoin:round;stroke-width:2px"/><circle cx="17.5" cy="6.5" r="1.069" style="fill:#4c241d"/><path d="M25,54H55a3,3,0,0,1,3,3v0a3,3,0,0,1-3,3H25a0,0,0,0,1,0,0V54a0,0,0,0,1,0,0Z" style="fill:#ffce56;stroke:#4c241d;stroke-linecap:round;stroke-linejoin:round;stroke-width:2px"/><path d="M23,48H53a3,3,0,0,1,3,3v0a3,3,0,0,1-3,3H23a0,0,0,0,1,0,0V48A0,0,0,0,1,23,48Z" style="fill:#ffce56;stroke:#4c241d;stroke-linecap:round;stroke-linejoin:round;stroke-width:2px"/><path d="M25,42H55a3,3,0,0,1,3,3v0a3,3,0,0,1-3,3H25a0,0,0,0,1,0,0V42a0,0,0,0,1,0,0Z" style="fill:#ffce56;stroke:#4c241d;stroke-linecap:round;stroke-linejoin:round;stroke-width:2px"/><path d="M24,36H54a3,3,0,0,1,3,3v0a3,3,0,0,1-3,3H24a0,0,0,0,1,0,0V36A0,0,0,0,1,24,36Z" style="fill:#ffce56;stroke:#4c241d;stroke-linecap:round;stroke-linejoin:round;stroke-width:2px"/><path d="M21,30H51a3,3,0,0,1,3,3v0a3,3,0,0,1-3,3H21a0,0,0,0,1,0,0V30A0,0,0,0,1,21,30Z" style="fill:#ffce56;stroke:#4c241d;stroke-linecap:round;stroke-linejoin:round;stroke-width:2px"/><path d="M23,24H53a3,3,0,0,1,3,3v0a3,3,0,0,1-3,3H23a0,0,0,0,1,0,0V24A0,0,0,0,1,23,24Z" style="fill:#ffce56;stroke:#4c241d;stroke-linecap:round;stroke-linejoin:round;stroke-width:2px"/><path d="M29,18H56a3,3,0,0,1,3,3v0a3,3,0,0,1-3,3H26a0,0,0,0,1,0,0V21A3,3,0,0,1,29,18Z" style="fill:#ffce56;stroke:#4c241d;stroke-linecap:round;stroke-linejoin:round;stroke-width:2px"/><rect x="20" y="12" width="33" height="6" rx="3" ry="3" style="fill:#ffce56;stroke:#4c241d;stroke-linecap:round;stroke-linejoin:round;stroke-width:2px"/><circle cx="25" cy="41" r="19" style="fill:#ffce56;stroke:#4c241d;stroke-linecap:round;stroke-linejoin:round;stroke-width:2px"/><circle cx="25" cy="41" r="14" style="fill:none;stroke:#4c241d;stroke-linecap:round;stroke-linejoin:round;stroke-width:2px;stroke-dasharray:3.9973435401916504,3.9973435401916504"/><path d="M27.737,35.007A2,2,0,0,0,26,34h-.706A3.294,3.294,0,0,0,22,37.294l.454,2.591C24,43,21.656,44.031,21,46h8V44" style="fill:none;stroke:#4c241d;stroke-linecap:round;stroke-linejoin:round;stroke-width:2px"/><line x1="21" y1="40" x2="25" y2="40" style="fill:none;stroke:#4c241d;stroke-linecap:round;stroke-linejoin:round;stroke-width:2px"/></g></svg>