<svg xmlns="http://www.w3.org/2000/svg" viewBox="0 0 64 64"><defs><style>.cls-1{fill:#ffe9c7;}.cls-2{fill:#a9ba5a;}.cls-2,.cls-3,.cls-4,.cls-5{stroke:#4c241d;stroke-linecap:round;stroke-linejoin:round;stroke-width:2px;}.cls-3{fill:#fff;}.cls-4{fill:none;}.cls-5{fill:#ffce56;}.cls-6{fill:#4c241d;}</style></defs><g id="drum"><circle class="cls-1" cx="36" cy="28" r="23"/><path class="cls-2" d="M56,39.72V34.28A1.28,1.28,0,0,0,54.72,33h0a1.29,1.29,0,0,1-1.26-1,23.69,23.69,0,0,0-3.31-8,1.29,1.29,0,0,1,.16-1.62h0a1.28,1.28,0,0,0,0-1.81l-3.85-3.85a1.28,1.28,0,0,0-1.81,0h0a1.29,1.29,0,0,1-1.62.16,23.69,23.69,0,0,0-8-3.31,1.29,1.29,0,0,1-1-1.26h0A1.28,1.28,0,0,0,32.72,11H27.28A1.28,1.28,0,0,0,26,12.28h0a1.29,1.29,0,0,1-1,1.26,23.69,23.69,0,0,0-8,3.31,1.29,1.29,0,0,1-1.62-.16h0a1.28,1.28,0,0,0-1.81,0L9.69,20.54a1.28,1.28,0,0,0,0,1.81h0A1.29,1.29,0,0,1,9.85,24a23.69,23.69,0,0,0-3.31,8,1.29,1.29,0,0,1-1.26,1h0A1.28,1.28,0,0,0,4,34.28v5.44A1.28,1.28,0,0,0,5.28,41h0a1.29,1.29,0,0,1,1.26,1,23.69,23.69,0,0,0,3.31,8,1.29,1.29,0,0,1-.16,1.62h0a1.28,1.28,0,0,0,0,1.81l3.85,3.85a1.28,1.28,0,0,0,1.81,0h0A1.29,1.29,0,0,1,17,57.15a23.69,23.69,0,0,0,8,3.31,1.29,1.29,0,0,1,1,1.26h0A1.28,1.28,0,0,0,27.28,63h5.44A1.28,1.28,0,0,0,34,61.72h0a1.29,1.29,0,0,1,1-1.26,23.69,23.69,0,0,0,8-3.31,1.29,1.29,0,0,1,1.62.16h0a1.28,1.28,0,0,0,1.81,0l3.85-3.85a1.28,1.28,0,0,0,0-1.81h0A1.29,1.29,0,0,1,50.15,50a23.69,23.69,0,0,0,3.31-8,1.29,1.29,0,0,1,1.26-1h0A1.28,1.28,0,0,0,56,39.72Z"/><circle class="cls-3" cx="30" cy="37" r="20"/><path class="cls-4" d="M44.13,29.49a16.08,16.08,0,0,0-7-6.83"/><path class="cls-5" d="M26.12,26.22,26.93,3A1.93,1.93,0,0,0,25,1h0a1.93,1.93,0,0,0-1.93,2l.81,23.22a3,3,0,1,0,2.24,0Z"/><path class="cls-5" d="M35.78,45.12,59,45.93A1.93,1.93,0,0,0,61,44h0a1.93,1.93,0,0,0-2-1.93l-23.22.81a3,3,0,1,0,0,2.24Z"/><line class="cls-4" x1="33" y1="38" x2="33" y2="35"/><line class="cls-4" x1="36" y1="38" x2="37" y2="37"/><line class="cls-4" x1="30" y1="38" x2="29" y2="37"/><circle class="cls-4" cx="54" cy="13" r="2"/><circle class="cls-6" cx="43" cy="5" r="1"/></g></svg>