<svg xmlns="http://www.w3.org/2000/svg" viewBox="0 0 64 64"><defs><style>.cls-1{fill:#ffe9c7;}.cls-2{fill:#4c241d;}.cls-3{fill:none;}.cls-3,.cls-4,.cls-5{stroke:#4c241d;stroke-linecap:round;stroke-linejoin:round;stroke-width:2px;}.cls-4{fill:#fc8c29;}.cls-5{fill:#fff;}</style></defs><g id="slippers"><circle class="cls-1" cx="36.5" cy="24.5" r="21.5"/><circle class="cls-2" cx="17.93" cy="59.4" r="1.07"/><circle class="cls-3" cx="32.5" cy="5.5" r="2.5"/><line class="cls-3" x1="7.55" y1="52.05" x2="10.55" y2="55.05"/><line class="cls-3" x1="10.55" y1="52.05" x2="7.55" y2="55.05"/><path class="cls-4" d="M47,62H46c-5.4,0-8.51-5.08-7.3-11,2.67-13,0-21-.89-29C37.14,16,39.6,9,45,9h2c5.4,0,10.09,7.07,11.26,13,1.78,9,0,22-1.77,29C55,56.84,52.4,62,47,62Z"/><line class="cls-3" x1="49" y1="13" x2="49" y2="24"/><path class="cls-5" d="M49,16.15S36.2,25.21,38.2,34.21,45,43,46,42s1-3-1-4-13-4,4-16Z"/><path class="cls-5" d="M49,16.15s12.8,9.06,10.8,18.06S53,43,52,42s-1-3,1-4,13-4-4-16Z"/><path class="cls-4" d="M28.55,53.6l1-.26c5.22-1.4,6.9-7.12,4.19-12.52C27.74,29,28.23,20.55,27,12.59,26.09,6.6,21.9.5,16.69,1.91l-1.93.52c-5.22,1.4-7.91,9.45-7.5,15.48.63,9.16,5.73,21.24,9.27,27.54C19.48,50.7,23.33,55,28.55,53.6Z"/><line class="cls-3" x1="13.87" y1="6.81" x2="16.73" y2="17.43"/><path class="cls-5" d="M14.69,9.86S29.4,15.27,29.81,24.48,25.54,34.74,24.31,34s-1.75-2.63-.08-4.12,11.52-7.25-8-14.41Z"/><path class="cls-5" d="M14.69,9.86S4.69,21.94,9,30.1s8.85,6.72,9.56,5.49.18-3.15-2-3.6-13.59-.48-.3-16.49Z"/></g></svg>