<svg xmlns="http://www.w3.org/2000/svg" viewBox="0 0 64 64"><title>smoke</title><g id="smoke"><circle cx="16.5" cy="5.5" r="2.5" style="fill:none;stroke:#4c241d;stroke-linecap:round;stroke-linejoin:round;stroke-width:2px"/><circle cx="32.5" cy="31.5" r="21.5" style="fill:#e5efef"/><line x1="9.837" y1="16.663" x2="6.163" y2="20.337" style="fill:none;stroke:#4c241d;stroke-linecap:round;stroke-linejoin:round;stroke-width:2px"/><line x1="6.163" y1="16.663" x2="9.837" y2="20.337" style="fill:none;stroke:#4c241d;stroke-linecap:round;stroke-linejoin:round;stroke-width:2px"/><line x1="52.837" y1="23.663" x2="49.163" y2="27.337" style="fill:none;stroke:#4c241d;stroke-linecap:round;stroke-linejoin:round;stroke-width:2px"/><line x1="49.163" y1="23.663" x2="52.837" y2="27.337" style="fill:none;stroke:#4c241d;stroke-linecap:round;stroke-linejoin:round;stroke-width:2px"/><polygon points="33 25 47 15 49 18 33 25" style="fill:#6b4f5b;stroke:#4c241d;stroke-linecap:round;stroke-linejoin:round;stroke-width:2px"/><path d="M26,7v.882A3.118,3.118,0,0,0,29.118,11h.332a8.893,8.893,0,0,0-.879,4,9.025,9.025,0,0,0,.8,3.858A4.467,4.467,0,0,0,29.8,26.4,8.35,8.35,0,0,0,28.571,31c0,3.314,1.535,6,3.429,6s3.429-2.686,3.429-6A8.35,8.35,0,0,0,34.2,26.4a4.467,4.467,0,0,0,.423-7.544,9.025,9.025,0,0,0,.8-3.858,8.893,8.893,0,0,0-.879-4h.332A3.118,3.118,0,0,0,38,7.882V7Z" style="fill:#fc8c29;stroke:#4c241d;stroke-linecap:round;stroke-linejoin:round;stroke-width:2px"/><circle cx="32" cy="43" r="9" style="fill:#ffce56;stroke:#4c241d;stroke-linecap:round;stroke-linejoin:round;stroke-width:2px"/><path d="M32,37a6,6,0,0,0-6,6" style="fill:none;stroke:#fff;stroke-linecap:round;stroke-linejoin:round;stroke-width:2px"/><line x1="23" y1="52" x2="41" y2="52" style="fill:none;stroke:#4c241d;stroke-linecap:round;stroke-linejoin:round;stroke-width:2px"/><rect x="28" y="52" width="8" height="3" style="fill:#6b4f5b;stroke:#4c241d;stroke-linecap:round;stroke-linejoin:round;stroke-width:2px"/><path d="M39.1,62H24.9a1.68,1.68,0,0,1-1.459-2.514L28,55h8l4.564,4.486A1.68,1.68,0,0,1,39.1,62Z" style="fill:#6b4f5b;stroke:#4c241d;stroke-linecap:round;stroke-linejoin:round;stroke-width:2px"/><line x1="32" y1="7" x2="32" y2="2" style="fill:none;stroke:#4c241d;stroke-linecap:round;stroke-linejoin:round;stroke-width:2px"/><line x1="29" y1="2" x2="35" y2="2" style="fill:none;stroke:#4c241d;stroke-linecap:round;stroke-linejoin:round;stroke-width:2px"/><path d="M48.015,16.523S54,12,58,17s1,15-6,17-23-7-32-5S2.411,42.205,10,46c10,5,38-1,38-1" style="fill:none;stroke:#4c241d;stroke-linecap:round;stroke-linejoin:round;stroke-width:2px"/><polygon points="61 46 48 47 48 43 61 44 61 46" style="fill:#fc8c29;stroke:#4c241d;stroke-linecap:round;stroke-linejoin:round;stroke-width:2px"/><line x1="11" y1="62" x2="53" y2="62" style="fill:none;stroke:#4c241d;stroke-linecap:round;stroke-linejoin:round;stroke-width:2px"/></g></svg>